<?xml version="1.0" encoding="utf-8"?>
<!-- Generator: Adobe Illustrator 22.1.0, SVG Export Plug-In . SVG Version: 6.00 Build 0)  -->
<svg version="1.1" id="レイヤー_1" xmlns="http://www.w3.org/2000/svg" xmlns:xlink="http://www.w3.org/1999/xlink" x="0px"
	 y="0px" viewBox="0 0 481.9 368.5" style="enable-background:new 0 0 481.9 368.5;" xml:space="preserve">
<style type="text/css">
	.st0{fill:#17933D;stroke:#040000;stroke-miterlimit:10;}
	.st1{fill:#7E318E;stroke:#040000;stroke-miterlimit:10;}
	.st2{fill:#00913A;stroke:#040000;stroke-miterlimit:10;}
	.st3{fill:none;}
	.st4{fill:#FFE200;stroke:#040000;stroke-miterlimit:10;}
	.st5{fill:#595757;stroke:#000000;stroke-miterlimit:10;}
	.st6{fill:#FFE200;stroke:#000000;stroke-miterlimit:10;}
</style>
<polygon class="st0" points="283.2,211.9 283.2,268.6 273.3,268.6 269,268.6 197.9,268.6 197.9,211.9 170.3,211.9 170.3,296.9 
	188.2,296.9 197.9,296.9 269,296.9 273.3,296.9 283.2,296.9 283.2,296.9 297.4,296.9 297.4,296.9 311.6,296.9 311.6,211.9 "/>
<rect x="184" y="311.1" class="st1" width="113.4" height="50.2"/>
<rect x="219.1" y="70" class="st2" width="42.8" height="42.8"/>
<rect x="325.7" y="98.5" class="st3" width="85" height="198.4"/>
<polygon class="st3" points="297.4,98.5 283.2,98.5 262,98.5 262,70.2 219.4,70.2 219.4,98.5 198.2,98.5 184,98.5 184,98.5 
	170.3,98.5 170.3,183.5 170.3,183.5 203.3,183.5 203.3,211.9 170.3,211.9 170.3,296.9 184,296.9 184,296.9 212.3,296.9 212.3,282.8 
	269,282.8 269,296.9 297.4,296.9 297.4,296.9 311.6,296.9 311.6,211.9 277.5,211.9 277.5,183.5 311.6,183.5 311.6,98.5 297.4,98.5 
	"/>
<rect x="71.1" y="98.5" class="st3" width="85" height="198.4"/>
<polygon class="st0" points="56.9,296.9 56.9,282.8 28.6,282.8 28.6,323.9 56.9,323.9 56.9,311.1 56.9,311.1 "/>
<rect x="28.6" y="126.9" class="st0" width="28.3" height="127.6"/>
<rect x="71.1" y="98.5" class="st3" width="85" height="198.4"/>
<rect x="424.9" y="126.9" class="st3" width="0" height="127.6"/>
<rect x="325.7" y="98.5" class="st3" width="85" height="198.4"/>
<polygon class="st3" points="297.4,98.5 283.2,98.5 262,98.5 262,70.2 219.4,70.2 219.4,98.5 198.2,98.5 184,98.5 184,98.5 
	170.3,98.5 170.3,183.5 170.3,183.5 203.3,183.5 203.3,211.9 170.3,211.9 170.3,296.9 184,296.9 184,296.9 212.3,296.9 212.3,282.8 
	269,282.8 269,296.9 297.4,296.9 297.4,296.9 311.6,296.9 311.6,211.9 277.5,211.9 277.5,183.5 311.6,183.5 311.6,98.5 297.4,98.5 
	"/>
<rect x="425" y="282.8" class="st0" width="28.3" height="42.5"/>
<rect x="425" y="126.9" class="st0" width="28.3" height="127.6"/>
<rect x="269" y="296.9" class="st3" width="14.2" height="0"/>
<polygon class="st3" points="283.2,268.6 283.2,211.9 277.5,211.9 277.5,183.5 283.2,183.5 283.2,98.5 262,98.5 262,70.2 
	219.4,70.2 219.4,98.5 198.2,98.5 184,98.5 184,98.5 170.3,98.5 170.3,183.5 170.3,183.5 203.3,183.5 203.3,211.9 170.3,211.9 
	170.3,296.9 184,296.9 184,296.9 212.3,296.9 212.3,282.8 269,282.8 269,268.6 "/>
<rect x="71.1" y="98.5" class="st3" width="85" height="198.4"/>
<rect x="325.7" y="98.5" class="st3" width="85" height="198.4"/>
<polygon class="st0" points="297.4,98.5 283.2,98.5 283.2,183.5 311.6,183.5 311.6,98.5 297.4,98.5 "/>
<polygon class="st0" points="283.2,63.1 283.2,84.3 297.4,84.3 297.4,84.3 311.6,84.3 311.6,84.3 311.6,70.2 311.6,61.7 311.6,56.1 
	283.2,56.1 283.2,61.7 "/>
<rect x="71.1" y="98.5" class="st3" width="85" height="198.4"/>
<rect x="325.7" y="98.5" class="st3" width="85" height="198.4"/>
<polygon class="st3" points="203.3,183.5 203.3,211.9 197.9,211.9 197.9,296.9 170.3,296.9 170.3,296.9 184,296.9 184,296.9 
	212.3,296.9 212.3,282.8 269,282.8 269,296.9 269,296.9 283.2,296.9 297.4,296.9 297.4,296.9 311.6,296.9 311.6,211.9 283.2,211.9 
	277.5,211.9 277.5,183.5 283.2,183.5 311.6,183.5 311.6,98.5 297.4,98.5 297.4,98.5 283.2,98.5 262,98.5 262,70.2 219.4,70.2 
	219.4,98.5 198.2,98.5 197.9,98.5 197.9,183.5 "/>
<polygon class="st0" points="184,98.5 170.3,98.5 170.3,183.5 170.3,183.5 197.9,183.5 197.9,98.5 184,98.5 "/>
<polygon class="st0" points="197.9,27.6 197.9,56.1 170.3,56.1 170.3,61.7 170.3,84.3 170.3,84.3 184,84.3 184,84.3 197.9,84.3 
	197.9,70.2 283.3,70.2 283.3,27.6 "/>
<path class="st4" d="M425,126.9h28.3h5.7V98.5h-5.7H425h0V84.3h-99.2V61.7h0V56h-14.2v0.1v5.6v8.5v14.2v0h-14.2v0h-14.2V63.1v-1.5
	v-5.6h-71v7.1h0v7h-14.1v14.2h-0.3H184v0h-13.7v0V61.7h0v-5.6h-14.2v5.6v8.6v14.1H56.9h0v14.2H28.6h-5.7v28.3h5.7h28.3v127.6H28.6
	h-5.7v14.2v0v14.2h5.7h28.3v14.2v14.2h0h113.4v0H184v0v34h28.3v-34H269v34h28.3v-34v0h14.2v0h113.4v-14.2v-14.2h0h28.3h5.7v-14.2v0
	v-14.2h-5.7H425h0L425,126.9L425,126.9z M156.2,296.9h-85V98.5h85V296.9z M311.6,183.5h-28.3h-5.7v28.3h5.7h28.3v85h-14.2v0h-14.2
	H269v0v-14.2h-56.7v14.2H184v0h-13.7v0v-85h27.6h5.4v-28.3h-5.4h-27.6v0v-85H184v0h13.9h0.3h21.3V70.2H262v28.3h21.3h14.2v0h14.2
	V183.5z M410.8,296.9h-85V98.5h85V296.9z"/>
<circle class="st5" cx="268.1" cy="91.4" r="2.8"/>
<circle class="st5" cx="418.4" cy="112.7" r="2.8"/>
<circle class="st5" cx="418.4" cy="268.6" r="2.8"/>
<circle class="st5" cx="283.7" cy="304" r="2.8"/>
<circle class="st5" cx="198.9" cy="304" r="2.8"/>
<circle class="st5" cx="319.1" cy="304" r="2.8"/>
<circle class="st5" cx="163.2" cy="304" r="2.8"/>
<circle class="st5" cx="319.1" cy="197.7" r="2.8"/>
<circle class="st5" cx="163.2" cy="197.7" r="2.8"/>
<circle class="st5" cx="64" cy="268.6" r="2.8"/>
<circle class="st5" cx="64" cy="112.7" r="2.8"/>
<circle class="st5" cx="319.1" cy="91.4" r="2.8"/>
<circle class="st5" cx="163.2" cy="91.4" r="2.8"/>
<circle class="st5" cx="241.2" cy="304" r="2.8"/>
<circle class="st5" cx="212.8" cy="91.4" r="2.8"/>
<circle class="st5" cx="278" cy="61.7" r="2.8"/>
<rect x="71.1" y="268.6" class="st0" width="85" height="28.3"/>
<rect x="325.7" y="268.6" class="st0" width="85" height="28.3"/>
<rect x="325.7" y="98.5" class="st0" width="85" height="28.3"/>
<rect x="71.1" y="98.5" class="st0" width="85" height="28.3"/>
<polygon class="st0" points="156.2,56 56.9,56 56.9,47.5 28.6,47.5 28.6,98.5 56.9,98.5 56.9,84.3 156.2,84.3 "/>
<polygon class="st0" points="425,47.5 425,56 325.5,56 325.5,84.3 425,84.3 425,98.5 453.3,98.5 453.3,47.5 "/>
<path class="st6" d="M1085.9,175.7v-28.3h-34v-14.2h-99.2v-22.7h-14.2v22.7v0h-14.2v0h-14.2v-22.7h-70.9v8.5h-14.1v14.2H811v0h-13.7
	v0v-22.7h-14.2v22.7h-99.2v14.2h-34v28.3h34v127.6h-34v14.2v0v14.2h34v14.2V360h113.4v0H811v0v34h28.3v-34H896v34h28.3v-34v0h14.2v0
	h113.4v-14.2v-14.2h34v-14.2v0v-14.2h-34V175.7H1085.9z M783.1,345.8h-85V147.4h85V345.8z M938.5,232.4h-34v28.3h34v85h-14.2v0H896
	v-14.2h-56.7v14.2H811v0h-13.7v-85h33v-28.3h-33v0v-85H811v0h14.2h21.3v-28.3h42.5v28.3h21.3h14.2v0h14.2V232.4z M1037.7,345.8h-85
	V147.4h85V345.8z"/>
<rect x="71.1" y="212.8" class="st0" width="85" height="31.2"/>
<rect x="325.7" y="212.8" class="st0" width="85" height="31.2"/>
</svg>
