<?xml version="1.0" encoding="utf-8"?>
<!-- Generator: Adobe Illustrator 22.1.0, SVG Export Plug-In . SVG Version: 6.00 Build 0)  -->
<svg version="1.1" id="レイヤー_1" xmlns="http://www.w3.org/2000/svg" xmlns:xlink="http://www.w3.org/1999/xlink" x="0px"
	 y="0px" viewBox="0 0 453.5 311.8" style="enable-background:new 0 0 453.5 311.8;" xml:space="preserve">
<style type="text/css">
	.st0{fill:#FFE200;stroke:#000000;stroke-miterlimit:10;}
</style>
<path class="st0" d="M444.8,79.4V51h-34V36.9h-99.2V14.2h-14.2v22.7v0h-14.2v0H269V14.2h-70.9v8.5H184v14.2h-14.2v0h-13.7v0V14.2
	H142v22.7H42.8V51h-34v28.3h34v127.6h-34v14.2v0v14.2h34v14.2v14.2h113.4v0h13.7v0v34h28.3v-34h56.7v34h28.3v-34v0h14.2v0h113.4
	v-14.2v-14.2h34v-14.2v0v-14.2h-34V79.4H444.8z M142,249.4h-85V51h85V249.4z M297.4,136.1h-34v28.3h34v85h-14.2v0h-28.3v-14.2h-56.7
	v14.2h-28.3v0h-13.7v-85h33v-28.3h-33v0V51h13.7v0H184h21.3V22.7h42.5V51H269h14.2v0h14.2V136.1z M396.6,249.4h-85V51h85V249.4z"/>
</svg>
