<?xml version="1.0" encoding="utf-8"?>
<!-- Generator: Adobe Illustrator 22.1.0, SVG Export Plug-In . SVG Version: 6.00 Build 0)  -->
<svg version="1.1" id="レイヤー_1" xmlns="http://www.w3.org/2000/svg" xmlns:xlink="http://www.w3.org/1999/xlink" x="0px"
	 y="0px" viewBox="0 0 34 34" style="enable-background:new 0 0 34 34;" xml:space="preserve">
<style type="text/css">
	.st0{fill:#FFFFFF;}
	.st1{font-family:'AgencyFB-Bold';}
	.st2{font-size:10px;}
	.st3{fill:#0B318F;stroke:#000000;stroke-width:0.25;stroke-miterlimit:10;}
</style>
<rect y="22.6" width="19.3" height="9.9"/>
<text transform="matrix(1 0 0 1 3.647804e-05 32.5552)" class="st0 st1 st2">down</text>
<rect x="19.7" y="22.6" width="1.4" height="9.9"/>
<rect y="4.2" class="st3" width="3" height="5.7"/>
<polygon class="st3" points="30.6,26.9 30.6,21.2 30.6,15.5 24.9,15.5 24.9,9.9 19.3,9.9 19.3,4.2 13.6,4.2 13.6,4.2 8.1,4.2 
	8.1,4.2 5.1,4.2 5.1,9.9 7.9,9.9 7.9,9.9 13.6,9.9 13.6,15.5 13.6,15.5 19.3,15.5 19.3,21.2 19.3,21.2 24.9,21.2 24.9,26.9 
	22.1,26.9 27.8,32.5 33.4,26.9 "/>
</svg>
