<?xml version="1.0" encoding="utf-8"?>
<!-- Generator: Adobe Illustrator 22.1.0, SVG Export Plug-In . SVG Version: 6.00 Build 0)  -->
<svg version="1.1" xmlns="http://www.w3.org/2000/svg" xmlns:xlink="http://www.w3.org/1999/xlink" x="0px" y="0px"
	 viewBox="0 0 510.2 453.5" style="enable-background:new 0 0 510.2 453.5;" xml:space="preserve">
<style type="text/css">
	.st0{fill:#F5D752;stroke:#040000;stroke-miterlimit:10;}
	.st1{fill:#B5B5B6;stroke:#040000;stroke-miterlimit:10;}
	.st2{fill:#8FC31F;stroke:#040000;stroke-miterlimit:10;}
	.st3{fill:none;}
	.st4{fill:none;stroke:#000000;stroke-miterlimit:10;}
	.st5{fill:none;stroke:#040000;stroke-miterlimit:10;}
	.st6{fill:#FAEFB3;stroke:#040000;stroke-miterlimit:10;}
	.st7{fill:none;stroke:#000000;stroke-width:0.25;stroke-miterlimit:10;}
	.st8{fill:#595757;stroke:#000000;stroke-miterlimit:10;}
	.st9{font-family:'KozGoPr6N-Regular-90ms-RKSJ-H';}
	.st10{font-size:7px;}
	.st11{fill:#1D2088;}
	.st12{fill:#E60012;}
</style>
<g id="部屋">
	<rect x="198.6" y="374.2" class="st0" width="113.1" height="49.8"/>
	<rect x="226.3" y="374.2" class="st1" width="57.2" height="49.8"/>
	<rect x="234.2" y="76.2" class="st1" width="42.8" height="42.8"/>
	<polygon class="st0" points="297.6,33.7 213.5,33.7 213.5,56.9 213.3,56.9 213.3,76.1 276.9,76.1 276.9,62.1 297.6,62.1 	"/>
	<rect x="71.3" y="218" class="st2" width="99.2" height="42.5"/>
	<rect x="128" y="218" class="st0" width="42.5" height="42.5"/>
	<rect x="212.8" y="328.6" class="st0" width="85" height="31.2"/>
	<rect x="184.9" y="104.6" class="st0" width="28.3" height="255.1"/>
	<rect x="297.6" y="104.6" class="st0" width="28.3" height="255.1"/>
	<polygon class="st0" points="71.3,62.1 71.3,53.6 60.3,53.6 57.1,53.6 28.8,53.6 28.8,104.6 60.3,104.6 60.3,90.5 170.5,90.5 
		170.5,62.1 	"/>
	<polygon class="st0" points="475.2,53.6 453.5,53.6 453.5,53.6 446.9,53.6 439.3,53.6 439.3,62.1 354,62.1 354,90.5 439.3,90.5 
		453.5,90.5 453.5,90.5 453.5,104.6 481.8,104.6 481.8,53.6 	"/>
	<rect x="340.1" y="104.6" class="st3" width="85" height="198.4"/>
	<polygon class="st3" points="311.7,104.6 297.6,104.6 276.3,104.6 276.3,76.3 233.8,76.3 233.8,104.6 212.5,104.6 198.3,104.6 
		198.3,104.6 184.7,104.6 184.7,189.7 184.7,189.7 217.7,189.7 217.7,218 184.7,218 184.7,303.1 198.3,303.1 198.3,303.1 
		226.7,303.1 226.7,288.9 283.4,288.9 283.4,303.1 311.7,303.1 311.7,303.1 325.9,303.1 325.9,218 291.9,218 291.9,189.7 
		325.9,189.7 325.9,104.6 311.7,104.6 	"/>
	<rect x="85.5" y="104.6" class="st3" width="85" height="198.4"/>
	<rect x="85.5" y="104.6" class="st3" width="85" height="198.4"/>
	<rect x="439.3" y="133" class="st3" width="0" height="127.6"/>
	<rect x="340.1" y="104.6" class="st3" width="85" height="198.4"/>
	<polygon class="st3" points="311.7,104.6 297.6,104.6 276.3,104.6 276.3,76.3 233.8,76.3 233.8,104.6 212.5,104.6 198.3,104.6 
		198.3,104.6 184.7,104.6 184.7,189.7 184.7,189.7 217.7,189.7 217.7,218 184.7,218 184.7,303.1 198.3,303.1 198.3,303.1 
		226.7,303.1 226.7,288.9 283.4,288.9 283.4,303.1 311.7,303.1 311.7,303.1 325.9,303.1 325.9,218 291.9,218 291.9,189.7 
		325.9,189.7 325.9,104.6 311.7,104.6 	"/>
	<rect x="453.5" y="345.6" class="st0" width="28.3" height="42.5"/>
	<rect x="283.4" y="303.1" class="st3" width="14.2" height="0"/>
	<polygon class="st3" points="297.6,274.7 297.6,218 291.9,218 291.9,189.7 297.6,189.7 297.6,104.6 276.3,104.6 276.3,76.3 
		233.8,76.3 233.8,104.6 212.5,104.6 198.3,104.6 198.3,104.6 184.7,104.6 184.7,189.7 184.7,189.7 217.7,189.7 217.7,218 
		184.7,218 184.7,303.1 198.3,303.1 198.3,303.1 226.7,303.1 226.7,288.9 283.4,288.9 283.4,274.7 	"/>
	<rect x="340.1" y="104.6" class="st3" width="85" height="198.4"/>
	<polygon class="st0" points="42.9,133 28.8,133 28.8,317.2 57.1,317.2 57.1,133 42.9,133 	"/>
	<polygon class="st0" points="297.6,69.3 297.6,90.5 311.7,90.5 311.7,90.5 325.9,90.5 325.9,90.5 325.9,76.3 325.9,67.8 
		325.9,62.2 297.6,62.2 297.6,67.8 	"/>
	<rect x="340.1" y="104.6" class="st3" width="85" height="198.4"/>
	<polygon class="st3" points="217.7,189.7 217.7,218 212.3,218 212.3,303.1 184.7,303.1 184.7,303.1 198.3,303.1 198.3,303.1 
		226.7,303.1 226.7,288.9 283.4,288.9 283.4,303.1 283.4,303.1 297.6,303.1 311.7,303.1 311.7,303.1 325.9,303.1 325.9,218 
		297.6,218 291.9,218 291.9,189.7 297.6,189.7 325.9,189.7 325.9,104.6 311.7,104.6 311.7,104.6 297.6,104.6 276.3,104.6 
		276.3,76.3 233.8,76.3 233.8,104.6 212.5,104.6 212.3,104.6 212.3,189.7 	"/>
	<rect x="340.1" y="218" class="st0" width="99.2" height="42.5"/>
	<rect x="340.1" y="62.2" class="st0" width="85" height="28.3"/>
	<rect x="71.3" y="104.6" class="st0" width="99.2" height="28.3"/>
	<line class="st4" x1="156.3" y1="90.5" x2="156.3" y2="62.2"/>
	<rect x="340.1" y="104.6" class="st3" width="85" height="198.4"/>
	<polygon class="st3" points="311.7,104.6 297.6,104.6 276.3,104.6 276.3,76.3 233.8,76.3 233.8,104.6 212.5,104.6 212.3,104.6 
		198.3,104.6 198.3,104.6 184.7,104.6 184.7,189.7 184.7,189.7 212.3,189.7 217.7,189.7 217.7,218 212.3,218 184.7,218 184.7,303.1 
		184.7,303.1 198.3,303.1 198.3,303.1 226.7,303.1 226.7,288.9 283.4,288.9 283.4,303.1 283.4,303.1 297.6,303.1 311.7,303.1 
		311.7,303.1 325.9,303.1 325.9,218 297.6,218 291.9,218 291.9,189.7 297.6,189.7 325.9,189.7 325.9,104.6 311.7,104.6 	"/>
	<line class="st4" x1="142.2" y1="90.3" x2="142.2" y2="62"/>
	<line class="st4" x1="99.6" y1="90.5" x2="99.6" y2="62.2"/>
	<line class="st4" x1="113.8" y1="90.5" x2="113.8" y2="62.2"/>
	<line class="st4" x1="128" y1="90.3" x2="128" y2="62"/>
	<polygon class="st3" points="340.3,104.6 340.3,232.2 340.1,232.2 340.1,303.1 340.1,303.1 340.1,359.8 362.9,359.8 362.9,104.6 	
		"/>
	<polygon class="st3" points="425.1,359.8 425.1,303.1 425.3,303.1 425.3,232.2 425.4,232.2 425.4,104.6 377,104.6 377,359.8 	"/>
	<polygon class="st3" points="312,104.6 297.8,104.6 276.5,104.6 276.5,76.3 234,76.3 234,104.6 212.8,104.6 212.5,104.6 
		198.6,104.6 198.6,104.6 184.9,104.6 184.9,189.7 184.9,189.7 212.5,189.7 217.9,189.7 217.9,218 212.5,218 184.9,218 184.9,232.2 
		184.7,232.2 184.7,303.1 184.7,303.1 184.7,359.7 184.7,359.8 198.4,359.8 198.4,359.8 226.7,359.8 226.7,345.6 283.4,345.6 
		283.4,359.7 283.4,359.8 297.6,359.8 311.8,359.8 311.8,359.8 325.9,359.8 325.9,329.9 325.9,329.9 325.9,218 297.8,218 292.1,218 
		292.1,189.7 297.8,189.7 325.9,189.7 325.9,133 326.2,133 326.2,104.6 312,104.6 	"/>
	<polygon class="st3" points="170.5,104.6 71.4,104.6 71.4,232.2 71.3,232.2 71.3,322.6 71.2,322.6 71.2,359.8 71.3,359.8 
		89.6,359.8 157.3,359.8 164.3,359.8 170.5,359.8 170.5,322.6 170.5,322.6 170.5,129.1 170.7,129.1 170.7,104.6 170.5,104.6 	"/>
	<rect x="71.3" y="331.8" class="st0" width="99.2" height="28.3"/>
	<rect x="340.2" y="104.6" class="st0" width="99.2" height="28.3"/>
	<rect x="340.2" y="331.8" class="st0" width="99.2" height="28.3"/>
	<polygon class="st0" points="467.7,133 453.5,133 453.5,317.2 481.9,317.2 481.9,133 467.7,133 	"/>
	<line class="st4" x1="71.2" y1="90.5" x2="71.2" y2="62.2"/>
	<line class="st4" x1="85.5" y1="90.3" x2="85.5" y2="62"/>
	<line class="st4" x1="425.4" y1="90.2" x2="425.4" y2="61.9"/>
	<line class="st4" x1="382.9" y1="90.4" x2="382.9" y2="62.1"/>
	<line class="st4" x1="397" y1="90.4" x2="397" y2="62.1"/>
	<line class="st4" x1="411.2" y1="90.2" x2="411.2" y2="61.9"/>
	<line class="st4" x1="368.7" y1="90.2" x2="368.7" y2="61.9"/>
	<line class="st4" x1="439.4" y1="90.2" x2="439.4" y2="53.6"/>
	<line class="st5" x1="297.6" y1="118.8" x2="325.9" y2="118.8"/>
	<line class="st5" x1="297.6" y1="133" x2="325.9" y2="133"/>
	<line class="st5" x1="297.6" y1="161.4" x2="325.9" y2="161.4"/>
	<line class="st5" x1="297.6" y1="175.5" x2="325.9" y2="175.5"/>
	<line class="st5" x1="297.6" y1="232.2" x2="325.9" y2="232.2"/>
	<line class="st5" x1="297.6" y1="246.5" x2="325.9" y2="246.5"/>
	<line class="st5" x1="297.6" y1="260.5" x2="325.9" y2="260.5"/>
	<line class="st5" x1="297.6" y1="288.9" x2="325.9" y2="288.9"/>
	<line class="st5" x1="297.6" y1="303.1" x2="325.9" y2="303.1"/>
	<line class="st5" x1="297.6" y1="331.4" x2="325.9" y2="331.4"/>
	<rect x="28.8" y="345.7" class="st0" width="28.3" height="42.5"/>
	<line class="st5" x1="184.9" y1="118.8" x2="213.3" y2="118.8"/>
	<line class="st5" x1="184.9" y1="133" x2="213.3" y2="133"/>
	<line class="st5" x1="184.9" y1="147.2" x2="213.3" y2="147.2"/>
	<line class="st5" x1="184.9" y1="161.3" x2="213.3" y2="161.3"/>
	<line class="st5" x1="184.9" y1="260.5" x2="213.3" y2="260.5"/>
	<line class="st5" x1="184.9" y1="288.9" x2="213.3" y2="288.9"/>
	<line class="st5" x1="28.8" y1="161.4" x2="57.1" y2="161.4"/>
	<line class="st5" x1="28.8" y1="260.8" x2="57.1" y2="260.8"/>
	<line class="st5" x1="28.8" y1="302.8" x2="57.1" y2="302.8"/>
	<line class="st5" x1="29.4" y1="274.8" x2="57.7" y2="274.8"/>
	<line class="st5" x1="28.8" y1="317.3" x2="57.1" y2="317.3"/>
	<line class="st5" x1="28.8" y1="345.7" x2="57.1" y2="345.7"/>
	<line class="st5" x1="453.5" y1="147.2" x2="481.8" y2="147.2"/>
	<line class="st5" x1="453.5" y1="161.3" x2="481.8" y2="161.3"/>
	<line class="st5" x1="453.5" y1="175.5" x2="481.8" y2="175.5"/>
	<line class="st5" x1="453.5" y1="189.7" x2="481.8" y2="189.7"/>
	<line class="st5" x1="453.5" y1="203.8" x2="481.8" y2="203.8"/>
	<line class="st5" x1="453.5" y1="260.5" x2="481.8" y2="260.5"/>
	<line class="st5" x1="453.5" y1="274.8" x2="481.8" y2="274.8"/>
	<line class="st5" x1="453.5" y1="288.9" x2="467.7" y2="288.9"/>
	<line class="st5" x1="453.5" y1="303.1" x2="481.8" y2="303.1"/>
	<line class="st5" x1="453.5" y1="317.3" x2="481.8" y2="317.3"/>
	<line class="st5" x1="453.5" y1="345.6" x2="481.8" y2="345.6"/>
	<line class="st5" x1="453.5" y1="366.8" x2="481.8" y2="366.8"/>
	<line class="st4" x1="142.2" y1="132.9" x2="142.2" y2="104.6"/>
	<line class="st4" x1="99.7" y1="133" x2="99.7" y2="104.8"/>
	<line class="st4" x1="411.1" y1="132.9" x2="411.1" y2="104.7"/>
	<line class="st4" x1="368.6" y1="133.1" x2="368.6" y2="104.8"/>
	<line class="st4" x1="382.8" y1="133.1" x2="382.8" y2="104.8"/>
	<line class="st4" x1="142.2" y1="360.1" x2="142.2" y2="331.8"/>
	<line class="st4" x1="99.6" y1="360.2" x2="99.6" y2="332"/>
	<line class="st4" x1="85.8" y1="360.2" x2="85.8" y2="332"/>
	<line class="st4" x1="425.2" y1="360.2" x2="425.2" y2="332"/>
	<line class="st4" x1="411.1" y1="360.1" x2="411.1" y2="331.8"/>
	<line class="st4" x1="368.6" y1="360.2" x2="368.6" y2="332"/>
	<line class="st4" x1="382.7" y1="360.2" x2="382.7" y2="332"/>
	<line class="st4" x1="396.9" y1="360.1" x2="396.9" y2="331.8"/>
	<line class="st4" x1="354.4" y1="360.1" x2="354.4" y2="331.8"/>
	<line class="st5" x1="453.5" y1="232.2" x2="481.9" y2="232.2"/>
	<line class="st5" x1="453.5" y1="218" x2="481.8" y2="218"/>
	<line class="st5" x1="453.5" y1="246.5" x2="481.9" y2="246.5"/>
	<line class="st5" x1="28.8" y1="218" x2="57.1" y2="218"/>
	<line class="st4" x1="128" y1="260.5" x2="128" y2="218"/>
	<line class="st5" x1="467.7" y1="303.1" x2="467.7" y2="289"/>
	<line class="st4" x1="255.1" y1="346.1" x2="255.1" y2="328.7"/>
	<line class="st4" x1="283.4" y1="346" x2="283.4" y2="328.5"/>
	<line class="st4" x1="227.1" y1="345.2" x2="227.1" y2="328.5"/>
	<line class="st4" x1="276.9" y1="62" x2="276.9" y2="33.8"/>
	<line class="st5" x1="29.4" y1="147.2" x2="57.7" y2="147.2"/>
	<line class="st5" x1="28.8" y1="175.5" x2="57.1" y2="175.5"/>
	<line class="st5" x1="28.8" y1="189.9" x2="57.1" y2="189.9"/>
	<line class="st5" x1="28.8" y1="231.9" x2="57.1" y2="231.9"/>
	<line class="st5" x1="28.8" y1="246.3" x2="57.1" y2="246.3"/>
	<line class="st4" x1="128" y1="360.2" x2="128" y2="332"/>
	<line class="st4" x1="156.3" y1="360.2" x2="156.3" y2="332"/>
	<line class="st4" x1="156.3" y1="260.6" x2="156.3" y2="218.1"/>
	<line class="st4" x1="85.8" y1="133.3" x2="85.8" y2="105"/>
	<line class="st4" x1="128" y1="133.3" x2="128" y2="105"/>
	<line class="st4" x1="156.3" y1="133.3" x2="156.3" y2="105"/>
	<polygon class="st0" points="184.9,69.3 184.9,90.5 199.1,90.5 199.1,90.5 213.3,90.5 213.3,90.5 213.3,76.3 213.3,67.8 
		213.3,62.2 184.9,62.2 184.9,67.8 	"/>
	<line class="st5" x1="43.9" y1="288.8" x2="58.1" y2="288.8"/>
	<line class="st5" x1="42.9" y1="303.1" x2="42.9" y2="289"/>
	<line class="st5" x1="184.7" y1="232.2" x2="213" y2="232.2"/>
	<line class="st5" x1="184.4" y1="274.8" x2="212.8" y2="274.8"/>
	<line class="st5" x1="184.4" y1="302.5" x2="212.7" y2="302.5"/>
	<line class="st5" x1="184.4" y1="328.5" x2="212.8" y2="328.5"/>
	<line class="st5" x1="28.7" y1="79.1" x2="57.1" y2="79.1"/>
	<rect x="213.4" y="33.6" class="st1" width="63.7" height="42.8"/>
	<line class="st5" x1="233.8" y1="104.6" x2="276.3" y2="104.6"/>
</g>
<g id="通路">
	<path class="st6" d="M454,148.5V133h28.1h5.7v-28.3h-5.7H454V53.5h-14.2v36.9h-48.6h-28.3h-22.5V67.8h0v-5.7h-14.2v0.1v5.6v8.5
		v14.2v0H312v0h-14.2V69.3v-1.5v-5.6h-0.2v0.1h-20.7v14h-0.4v28.3h21.3H312v0h14.2V133h-0.3v56.7h-28.1h-5.7V218h5.7h28.1V330h0
		v29.8h-14.2v0h-14.2h-14.2v0v-14.2h-56.7v14.2h-28.3v0h-13.7v0v-56.7h0v-70.9h0.2V218h27.6h5.4v-28.3h-5.4h-27.6v0v-85h13.7v0h13.9
		h0.3H234V76.3h-0.3h-20.5h-0.5v0.9h0v13.2h-0.3h-13.9v0h-13.7v0V67.8h0v-5.6h-14.2v5.6v8.6v14.1h-85v0H71.5V53.6H57.4v36.9h-0.1h0
		v14.2H28.9h-5.7V133h5.7h28.2v170.1H57v14.2H28.7H23v14.2v0v14.2h5.7H57v14.2v14.2h0h14.2v0h0.1h14.2h4.2h74.7h20.4v0h13.7v0v34
		h28.3v-34h56.7v34h28.3v-34v0h14.2v0h36.9h28.3h62.3v-14.2v-14.2h0h28.3h5.7v-14.2v0v-14.2h-5.7h-28.1v-85h-0.1v-83.7H454z
		 M170.8,129.2h-0.3v193.5h0v37.1h-6.2h-7H89.7H71.3h-0.1l0-37.1h0.1v-90.5h0.1l0-83.6h0.1v-43.9h99v0h0.3V129.2z M439.5,232.2
		L439.5,232.2l0,70.9h-0.2v56.7h-48.1h-28.3h-22.8v-56.7h0v-70.9h0.3V104.6h22.5h28.3h48.3V232.2z"/>
	<polygon class="st3" points="311.7,104.1 297.5,104.1 276.3,104.1 276.3,75.7 233.8,75.7 233.8,104.1 212.5,104.1 198.3,104.1 
		198.3,104.1 184.7,104.1 184.7,189.1 184.7,189.1 217.7,189.1 217.7,217.5 184.7,217.5 184.7,302.5 198.3,302.5 198.3,302.5 
		226.7,302.5 226.7,288.3 283.4,288.3 283.4,302.5 311.7,302.5 311.7,302.5 325.9,302.5 325.9,217.5 291.9,217.5 291.9,189.1 
		325.9,189.1 325.9,104.1 311.7,104.1 	"/>
	<polygon class="st3" points="311.7,104.1 297.5,104.1 276.3,104.1 276.3,75.7 233.8,75.7 233.8,104.1 212.5,104.1 198.3,104.1 
		198.3,104.1 184.7,104.1 184.7,189.1 184.7,189.1 217.7,189.1 217.7,217.5 184.7,217.5 184.7,302.5 198.3,302.5 198.3,302.5 
		226.7,302.5 226.7,288.3 283.4,288.3 283.4,302.5 311.7,302.5 311.7,302.5 325.9,302.5 325.9,217.5 291.9,217.5 291.9,189.1 
		325.9,189.1 325.9,104.1 311.7,104.1 	"/>
	<polygon class="st3" points="297.5,274.1 297.5,217.5 291.9,217.5 291.9,189.1 297.5,189.1 297.5,104.1 276.3,104.1 276.3,75.7 
		233.8,75.7 233.8,104.1 212.5,104.1 198.3,104.1 198.3,104.1 184.7,104.1 184.7,189.1 184.7,189.1 217.7,189.1 217.7,217.5 
		184.7,217.5 184.7,302.5 198.3,302.5 198.3,302.5 226.7,302.5 226.7,288.3 283.4,288.3 283.4,274.1 	"/>
	<polygon class="st3" points="217.7,189.1 217.7,217.5 212.3,217.5 212.3,302.5 184.7,302.5 184.7,302.5 198.3,302.5 198.3,302.5 
		226.7,302.5 226.7,288.3 283.4,288.3 283.4,302.5 283.4,302.5 297.5,302.5 311.7,302.5 311.7,302.5 325.9,302.5 325.9,217.5 
		297.5,217.5 291.9,217.5 291.9,189.1 297.5,189.1 325.9,189.1 325.9,104.1 311.7,104.1 311.7,104.1 297.5,104.1 276.3,104.1 
		276.3,75.7 233.8,75.7 233.8,104.1 212.5,104.1 212.3,104.1 212.3,189.1 	"/>
	<polygon class="st3" points="311.7,104.1 297.5,104.1 276.3,104.1 276.3,75.7 233.8,75.7 233.8,104.1 212.5,104.1 212.3,104.1 
		198.3,104.1 198.3,104.1 184.7,104.1 184.7,189.1 184.7,189.1 212.3,189.1 217.7,189.1 217.7,217.5 212.3,217.5 184.7,217.5 
		184.7,302.5 184.7,302.5 198.3,302.5 198.3,302.5 226.7,302.5 226.7,288.3 283.4,288.3 283.4,302.5 283.4,302.5 297.5,302.5 
		311.7,302.5 311.7,302.5 325.9,302.5 325.9,217.5 297.5,217.5 291.9,217.5 291.9,189.1 297.5,189.1 325.9,189.1 325.9,104.1 
		311.7,104.1 	"/>
	<polygon class="st3" points="312,104.1 297.8,104.1 276.5,104.1 276.5,75.7 234,75.7 234,104.1 212.8,104.1 212.5,104.1 
		198.6,104.1 198.6,104.1 184.9,104.1 184.9,189.1 184.9,189.1 212.5,189.1 217.9,189.1 217.9,217.5 212.5,217.5 184.9,217.5 
		184.9,231.6 184.7,231.6 184.7,302.5 184.7,302.5 184.7,359.2 184.7,359.2 198.4,359.2 198.4,359.2 226.7,359.2 226.7,345 
		283.4,345 283.4,359.2 283.4,359.2 297.6,359.2 311.7,359.2 311.7,359.2 325.9,359.2 325.9,329.4 325.9,329.4 325.9,217.5 
		297.8,217.5 292.1,217.5 292.1,189.1 297.8,189.1 325.9,189.1 325.9,132.4 326.1,132.4 326.1,104.1 312,104.1 	"/>
	<line class="st5" x1="28.8" y1="331" x2="57.1" y2="331"/>
	<line class="st5" x1="453.5" y1="330.8" x2="487.5" y2="330.8"/>
	<line class="st5" x1="453.5" y1="118.2" x2="487.7" y2="118.2"/>
	<line class="st5" x1="28.8" y1="118.4" x2="57.1" y2="118.4"/>
	<line class="st5" x1="184.9" y1="203.4" x2="217.7" y2="203.4"/>
	<line class="st5" x1="43.5" y1="132.3" x2="43.5" y2="104.6"/>
	<line class="st5" x1="38.9" y1="132.4" x2="38.9" y2="104.6"/>
	<line class="st5" x1="48.1" y1="132.4" x2="48.1" y2="105.1"/>
	<line class="st5" x1="34.3" y1="132.4" x2="34.3" y2="105"/>
	<line class="st5" x1="41.2" y1="345.6" x2="41.2" y2="316.6"/>
	<line class="st5" x1="36.9" y1="345.6" x2="36.7" y2="316.8"/>
	<line class="st5" x1="45.8" y1="345.6" x2="45.8" y2="316.8"/>
	<line class="st5" x1="32.1" y1="345.6" x2="32.1" y2="316.8"/>
	<line class="st5" x1="200.9" y1="217.1" x2="200.9" y2="189.1"/>
	<line class="st5" x1="196.3" y1="217.4" x2="196.3" y2="189.3"/>
	<line class="st5" x1="205.5" y1="217.4" x2="205.5" y2="189.3"/>
	<line class="st5" x1="191.7" y1="217.4" x2="191.7" y2="189.3"/>
	<line class="st5" x1="198.9" y1="389.8" x2="226.9" y2="389.8"/>
	<line class="st5" x1="198.6" y1="385.3" x2="226.6" y2="385.3"/>
	<line class="st5" x1="198.6" y1="394.4" x2="226.6" y2="394.4"/>
	<line class="st5" x1="198.6" y1="380.7" x2="226.6" y2="380.7"/>
	<line class="st5" x1="470" y1="132.3" x2="470" y2="104.2"/>
	<line class="st5" x1="465.4" y1="132.6" x2="465.4" y2="104.5"/>
	<line class="st5" x1="474.5" y1="132.6" x2="474.5" y2="104.5"/>
	<line class="st5" x1="460.8" y1="132.6" x2="460.8" y2="104.5"/>
	<line class="st5" x1="467.7" y1="344.6" x2="467.7" y2="316.6"/>
	<line class="st5" x1="463.2" y1="344.9" x2="463.2" y2="316.9"/>
	<line class="st5" x1="472.3" y1="344.9" x2="472.3" y2="316.9"/>
	<line class="st5" x1="458.5" y1="344.9" x2="458.5" y2="316.9"/>
	<line class="st5" x1="212.3" y1="407.4" x2="212.3" y2="373.4"/>
	<line class="st5" x1="297.7" y1="407.4" x2="297.7" y2="373.4"/>
	<line class="st5" x1="284.2" y1="389.8" x2="312.2" y2="389.8"/>
	<line class="st5" x1="283.9" y1="385.3" x2="311.9" y2="385.3"/>
	<line class="st5" x1="283.9" y1="394.4" x2="311.9" y2="394.4"/>
	<line class="st5" x1="283.9" y1="380.7" x2="311.9" y2="380.7"/>
	<g>
		<rect x="226.6" y="96.9" class="st4" width="7.1" height="7.1"/>
		<rect x="228.8" y="99.1" class="st7" width="2.8" height="2.8"/>
		<line class="st7" x1="229.3" y1="96.9" x2="229.3" y2="99.1"/>
		<line class="st7" x1="230.1" y1="101.8" x2="230.1" y2="104"/>
		<line class="st7" x1="226.6" y1="99.6" x2="228.8" y2="99.6"/>
		<line class="st7" x1="230.9" y1="101.8" x2="230.9" y2="104"/>
		<line class="st7" x1="229.3" y1="101.8" x2="229.3" y2="104"/>
		<line class="st7" x1="230.1" y1="96.9" x2="230.1" y2="99.1"/>
		<line class="st7" x1="230.9" y1="96.9" x2="230.9" y2="99.1"/>
		<line class="st7" x1="226.6" y1="101.2" x2="228.8" y2="101.2"/>
		<line class="st7" x1="231.5" y1="99.6" x2="233.6" y2="99.6"/>
		<line class="st7" x1="231.5" y1="101.2" x2="233.6" y2="101.2"/>
		<line class="st7" x1="226.5" y1="100.4" x2="228.6" y2="100.4"/>
		<line class="st7" x1="231.5" y1="100.4" x2="233.6" y2="100.4"/>
	</g>
	<g>
		<rect x="277.5" y="96.9" class="st4" width="7.1" height="7.1"/>
		<rect x="279.7" y="99.1" class="st7" width="2.8" height="2.8"/>
		<line class="st7" x1="280.2" y1="96.9" x2="280.2" y2="99.1"/>
		<line class="st7" x1="281" y1="101.8" x2="281" y2="104"/>
		<line class="st7" x1="277.5" y1="99.6" x2="279.7" y2="99.6"/>
		<line class="st7" x1="281.8" y1="101.8" x2="281.8" y2="104"/>
		<line class="st7" x1="280.2" y1="101.8" x2="280.2" y2="104"/>
		<line class="st7" x1="281" y1="96.9" x2="281" y2="99.1"/>
		<line class="st7" x1="281.8" y1="96.9" x2="281.8" y2="99.1"/>
		<line class="st7" x1="277.5" y1="101.2" x2="279.7" y2="101.2"/>
		<line class="st7" x1="282.4" y1="99.6" x2="284.5" y2="99.6"/>
		<line class="st7" x1="282.4" y1="101.2" x2="284.5" y2="101.2"/>
		<line class="st7" x1="277.4" y1="100.4" x2="279.5" y2="100.4"/>
		<line class="st7" x1="282.4" y1="100.4" x2="284.5" y2="100.4"/>
	</g>
	<line class="st5" x1="226.9" y1="423.6" x2="226.7" y2="373.9"/>
	<line class="st5" x1="292.4" y1="203.7" x2="325.9" y2="203.7"/>
	<line class="st5" x1="314" y1="217.3" x2="314" y2="189.2"/>
	<line class="st5" x1="309.5" y1="217.6" x2="309.5" y2="189.5"/>
	<line class="st5" x1="318.6" y1="217.6" x2="318.6" y2="189.5"/>
	<line class="st5" x1="304.8" y1="217.6" x2="304.8" y2="189.5"/>
	<line class="st4" x1="282.5" y1="70.8" x2="297.6" y2="70.8"/>
	<line class="st4" x1="282.5" y1="66.7" x2="297.6" y2="66.7"/>
	<line class="st4" x1="294.2" y1="66.9" x2="294.2" y2="62.7"/>
	<line class="st4" x1="291.8" y1="66.9" x2="291.8" y2="62.7"/>
	<line class="st4" x1="289.4" y1="66.8" x2="289.4" y2="62.6"/>
	<line class="st4" x1="286.8" y1="66.5" x2="286.8" y2="62.3"/>
	<line class="st4" x1="284.1" y1="66.9" x2="284.1" y2="62.7"/>
	<line class="st5" x1="283.5" y1="423.9" x2="283.3" y2="374.3"/>
	<polygon class="st3" points="362.9,104.6 340.3,104.6 340.3,232.2 340.1,232.2 340.1,303.1 340.1,303.1 340.1,359.8 362.9,359.8 
		391.2,359.8 439.3,359.8 439.3,303.1 439.5,303.1 439.5,232.2 439.5,232.2 439.5,104.6 391.2,104.6 	"/>
	<polygon class="st3" points="170.5,104.6 71.5,104.6 71.5,148.6 71.4,148.6 71.4,232.2 71.3,232.2 71.3,322.7 71.2,322.7 
		71.2,359.8 71.3,359.8 89.7,359.8 157.3,359.8 164.3,359.8 170.5,359.8 170.5,322.7 170.5,322.7 170.5,129.2 170.8,129.2 
		170.8,104.6 170.5,104.6 	"/>
	<polygon class="st3" points="234,104.6 212.8,104.6 212.5,104.6 198.6,104.6 198.6,104.6 184.9,104.6 184.9,189.7 184.9,189.7 
		212.5,189.7 217.9,189.7 217.9,218 212.5,218 184.9,218 184.9,232.2 184.7,232.2 184.7,303.1 184.7,303.1 184.7,359.8 184.7,359.8 
		198.4,359.8 198.4,359.8 226.7,359.8 226.7,345.6 283.4,345.6 283.4,359.8 283.4,359.8 297.6,359.8 311.8,359.8 311.8,359.8 
		325.9,359.8 325.9,330 325.9,330 325.9,218 297.8,218 292.1,218 292.1,189.7 297.8,189.7 325.9,189.7 325.9,133 326.2,133 
		326.2,104.6 312,104.6 312,104.6 297.8,104.6 276.6,104.6 276.6,76.3 234,76.3 	"/>
</g>
<g id="バーテクス">
	<circle class="st8" cx="289.4" cy="92.6" r="2.8"/>
	<circle class="st8" cx="446.9" cy="118.8" r="2.8"/>
	<circle class="st8" cx="446.9" cy="331.4" r="2.8"/>
	<circle class="st8" cx="298.1" cy="366.9" r="2.8"/>
	<circle class="st8" cx="213.3" cy="366.9" r="2.8"/>
	<circle class="st8" cx="333.5" cy="366.9" r="2.8"/>
	<circle class="st8" cx="177.6" cy="366.9" r="2.8"/>
	<circle class="st8" cx="333.5" cy="203.9" r="2.8"/>
	<circle class="st8" cx="177.6" cy="203.9" r="2.8"/>
	<circle class="st8" cx="64.2" cy="331.4" r="2.8"/>
	<circle class="st8" cx="64.2" cy="118.8" r="2.8"/>
	<circle class="st8" cx="333.5" cy="97.6" r="2.8"/>
	<circle class="st8" cx="177.6" cy="97.6" r="2.8"/>
	<circle class="st8" cx="223.2" cy="92.6" r="2.8"/>
	<circle class="st8" cx="278.1" cy="66.9" r="2.8"/>
	<circle class="st8" cx="64.2" cy="366.8" r="2.8"/>
	<circle class="st8" cx="446.9" cy="366.8" r="2.8"/>
	<circle class="st8" cx="64.2" cy="97.4" r="2.8"/>
	<circle class="st8" cx="446.9" cy="97.4" r="2.8"/>
	<circle class="st8" cx="64.2" cy="241.7" r="2.8"/>
</g>
<g id="テキスト">
	<text transform="matrix(1 0 0 1 92.4214 236.0218)"><tspan x="0" y="0" class="st9 st10">H121</tspan><tspan x="-2.3" y="12.3" class="st9 st10">講義室</tspan></text>
	<text transform="matrix(1 0 0 1 73.3973 79.7819)" class="st9 st10">215</text>
	<text transform="matrix(1 0 0 1 195.1426 178.134)" class="st9 st10">239</text>
	<text transform="matrix(1 0 0 1 194.6763 142.7335)" class="st9 st10">237</text>
	<text transform="matrix(1 0 0 1 194.2476 156.3333)" class="st9 st10">238</text>
	<text transform="matrix(1 0 0 1 194.195 128.7335)" class="st9 st10">236</text>
	<text transform="matrix(1 0 0 1 194.3525 116.7335)" class="st9 st10">235</text>
	<text transform="matrix(1 0 0 1 193.3716 79.1528)" class="st9 st10">234</text>
	<text transform="matrix(1 0 0 1 134.7941 245.7335)" class="st9 st10">227A</text>
	<text transform="matrix(1 0 0 1 37.7064 285.4002)" class="st9 st10">212</text>
	<text transform="matrix(1 0 0 1 37.1594 270.3333)" class="st9 st10">211</text>
	<text transform="matrix(1 0 0 1 37.7064 256.7335)" class="st9 st10">210</text>
	<text transform="matrix(1 0 0 1 37.7025 241.7335)" class="st9 st10">209</text>
	<text transform="matrix(1 0 0 1 37.136 226.7718)" class="st9 st10">208</text>
	<text transform="matrix(1 0 0 1 38.4306 207.6069)" class="st9 st10">206</text>
	<text transform="matrix(1 0 0 1 38.1299 185.0668)" class="st9 st10">205</text>
	<text transform="matrix(1 0 0 1 38.1299 171.0668)" class="st9 st10">204</text>
	<text transform="matrix(1 0 0 1 38.1299 159.0668)" class="st9 st10">203</text>
	<text transform="matrix(1 0 0 1 35.834 94.2335)" class="st9 st10">201A</text>
	<text transform="matrix(1 0 0 1 34.8401 70.2335)" class="st9 st10">201A</text>
	<text transform="matrix(1 0 0 1 37.136 142)" class="st9 st10">202</text>
	<text transform="matrix(1 0 0 1 36.6061 370.3522)" class="st9 st10">213</text>
	<text transform="matrix(0 -1 1 0 166.4334 247.4424)" class="st9 st10">227B</text>
	<text transform="matrix(0 -1 1 0 166.0483 126.9307)" class="st9 st10">225B</text>
	<text transform="matrix(0 -1 1 0 151.9568 127.1963)" class="st9 st10">225A</text>
	<text transform="matrix(0 -1 1 0 137.8282 126.9307)" class="st9 st10">224B</text>
	<text transform="matrix(1 0 0 1 106.8239 124.0114)" class="st9 st10">224A</text>
	<text transform="matrix(1 0 0 1 87.2573 124.0113)" class="st9 st10">223</text>
	<text transform="matrix(1 0 0 1 72.2999 124.0113)" class="st9 st10">222</text>
	<text transform="matrix(1 0 0 1 157.8582 79.1365)" class="st9 st10">221</text>
	<text transform="matrix(1 0 0 1 144.0242 79.8951)" class="st9 st10">220</text>
	<text transform="matrix(1 0 0 1 129.0203 79.5532)" class="st9 st10">219</text>
	<text transform="matrix(1 0 0 1 115.5465 79.6181)" class="st9 st10">218</text>
	<text transform="matrix(1 0 0 1 101.3582 79.6365)" class="st9 st10">217</text>
	<text transform="matrix(1 0 0 1 87.7348 79.8842)" class="st9 st10">216</text>
	<text transform="matrix(1 0 0 1 194.3132 226.9674)" class="st9 st10">240</text>
	<text transform="matrix(1 0 0 1 307.5092 320.2681)" class="st9 st10">265</text>
	<text transform="matrix(1 0 0 1 306.9755 298.9674)" class="st9 st10">264</text>
	<text transform="matrix(1 0 0 1 307.2361 276.453)" class="st9 st10">263</text>
	<text transform="matrix(1 0 0 1 306.5867 257.134)" class="st9 st10">262</text>
	<text transform="matrix(1 0 0 1 306.1462 242.634)" class="st9 st10">261</text>
	<text transform="matrix(1 0 0 1 306.3771 228.9674)" class="st9 st10">260</text>
	<text transform="matrix(1 0 0 1 193.8516 345.7681)" class="st9 st10">245</text>
	<text transform="matrix(1 0 0 1 194.4371 318.8007)" class="st9 st10">244</text>
	<text transform="matrix(1 0 0 1 194.9413 297.634)" class="st9 st10">243</text>
	<text transform="matrix(1 0 0 1 192.548 284.9674)" class="st9 st10">242B</text>
	<text transform="matrix(1 0 0 1 192.3506 269.634)" class="st9 st10">242A</text>
	<text transform="matrix(1 0 0 1 195.1465 249.3675)" class="st9 st10">241</text>
	<text transform="matrix(1 0 0 1 72.3001 349.1025)" class="st9 st10">228</text>
	<text transform="matrix(1 0 0 1 87.2535 348.9325)" class="st9 st10">229</text>
	<text transform="matrix(1 0 0 1 109.12 349.2422)" class="st9 st10">230</text>
	<text transform="matrix(1 0 0 1 129.4293 349.1029)" class="st9 st10">231</text>
	<text transform="matrix(1 0 0 1 143.3192 348.7911)" class="st9 st10">232</text>
	<text transform="matrix(1 0 0 1 157.0826 348.5305)" class="st9 st10">233</text>
	<text transform="matrix(1 0 0 1 236.6849 340.2054)" class="st9 st10">248</text>
	<text transform="matrix(1 0 0 1 264.181 340.6514)" class="st9 st10">249</text>
	<text transform="matrix(1 0 0 1 284.989 346.8398)" class="st9 st10">250</text>
	<text transform="matrix(1 0 0 1 307.8808 347.4406)" class="st9 st10">266</text>
	<text transform="matrix(1 0 0 1 281.0182 50.7681)" class="st9 st10">246</text>
	<text transform="matrix(1 0 0 1 307.1849 78.3977)" class="st9 st10">254</text>
	<text transform="matrix(1 0 0 1 306.8217 185.9348)" class="st9 st10">259</text>
	<text transform="matrix(1 0 0 1 306.8556 170.9348)" class="st9 st10">258</text>
	<text transform="matrix(1 0 0 1 307.2189 149.7681)" class="st9 st10">257</text>
	<text transform="matrix(1 0 0 1 306.8216 128.7681)" class="st9 st10">256</text>
	<text transform="matrix(1 0 0 1 306.5822 115.1014)" class="st9 st10">255</text>
	<text transform="matrix(1 0 0 1 348.3976 79.2279)" class="st9 st10">267</text>
	<text transform="matrix(1 0 0 1 412.7742 80.5174)" class="st9 st10">271</text>
	<text transform="matrix(1 0 0 1 397.7742 80.1754)" class="st9 st10">270</text>
	<text transform="matrix(1 0 0 1 384.2926 80.2404)" class="st9 st10">269</text>
	<text transform="matrix(1 0 0 1 370.1082 80.2588)" class="st9 st10">268</text>
	<text transform="matrix(1 0 0 1 425.9176 80.2674)" class="st9 st10">271</text>
	<text transform="matrix(1 0 0 1 463.2109 80.5174)" class="st9 st10">290</text>
	<text transform="matrix(1 0 0 1 349.6476 121.6986)" class="st9 st10">272</text>
	<text transform="matrix(1 0 0 1 369.6476 121.6987)" class="st9 st10">273</text>
	<text transform="matrix(1 0 0 1 391.4229 121.5298)" class="st9 st10">274</text>
	<text transform="matrix(1 0 0 1 419.0138 121.9779)" class="st9 st10">275</text>
	<text transform="matrix(1 0 0 1 372.5773 242.3973)" class="st9 st10">276 ～ 284</text>
	<text transform="matrix(0 -1 1 0 365.4769 356.4424)" class="st9 st10">286B</text>
	<text transform="matrix(0 -1 1 0 351.3481 355.7373)" class="st9 st10">286A</text>
	<text transform="matrix(0 -1 1 0 420.6077 356.2861)" class="st9 st10">289A</text>
	<text transform="matrix(0 -1 1 0 406.5164 355.6846)" class="st9 st10">288B</text>
	<text transform="matrix(0 -1 1 0 392.3876 354.9795)" class="st9 st10">288A</text>
	<text transform="matrix(0 -1 1 0 434.8862 355.7861)" class="st9 st10">289B</text>
	<text transform="matrix(1 0 0 1 370.4167 350.6451)" class="st9 st10">287</text>
	<text transform="matrix(1 0 0 1 462.6555 186.8333)" class="st9 st10">293</text>
	<text transform="matrix(1 0 0 1 463.2025 173.2335)" class="st9 st10">292</text>
	<text transform="matrix(1 0 0 1 461.1722 158.2335)" class="st9 st10">291B</text>
	<text transform="matrix(1 0 0 1 460.3362 143.2718)" class="st9 st10">291A</text>
	<text transform="matrix(1 0 0 1 460.2794 242.1899)" class="st9 st10">295B</text>
	<text transform="matrix(1 0 0 1 460.5607 228.59)" class="st9 st10">295A</text>
	<text transform="matrix(1 0 0 1 460.8264 213.59)" class="st9 st10">294B</text>
	<text transform="matrix(1 0 0 1 459.9903 198.6283)" class="st9 st10">294A</text>
	<text transform="matrix(1 0 0 1 463.1066 284.9835)" class="st9 st10">297</text>
	<text transform="matrix(1 0 0 1 463.1066 269.9835)" class="st9 st10">296</text>
	<text transform="matrix(1 0 0 1 460.3634 255.0218)" class="st9 st10">295C</text>
	<text transform="matrix(1 0 0 1 460.0586 380.9835)" class="st9 st10">298B</text>
	<text transform="matrix(1 0 0 1 459.4827 360.7099)" class="st9 st10">298A</text>
	<text transform="matrix(1 0 0 1 207.2436 418.7681)" class="st9 st10">252</text>
	<text transform="matrix(1 0 0 1 291.3735 418.1014)" class="st9 st10">253</text>
	<g>
		<circle class="st11" cx="217.5" cy="341.4" r="1.8"/>
		<circle class="st12" cx="222.9" cy="341.4" r="1.8"/>
		<polygon class="st12" points="222.9,343.8 220.8,352.6 225.1,352.6 		"/>
		<polygon class="st11" points="217.5,352.6 219.7,343.8 215.4,343.8 		"/>
	</g>
	<g>
		<circle class="st11" cx="467.7" cy="305.5" r="1.8"/>
		<polygon class="st11" points="467.7,316.7 469.8,307.9 465.5,307.9 		"/>
	</g>
	<g>
		<circle class="st12" cx="460.6" cy="291.4" r="1.8"/>
		<polygon class="st12" points="460.6,293.7 458.4,302.5 462.7,302.5 		"/>
	</g>
	<g>
		<circle class="st12" cx="49.4" cy="291.2" r="1.8"/>
		<polygon class="st12" points="49.4,293.5 47.2,302.3 51.5,302.3 		"/>
	</g>
	<g>
		<circle class="st11" cx="42.9" cy="305.2" r="1.8"/>
		<polygon class="st11" points="42.9,316.4 45.1,307.5 40.8,307.5 		"/>
	</g>
</g>
</svg>
