<?xml version="1.0" encoding="utf-8"?>
<!-- Generator: Adobe Illustrator 22.1.0, SVG Export Plug-In . SVG Version: 6.00 Build 0)  -->
<svg version="1.1" xmlns="http://www.w3.org/2000/svg" xmlns:xlink="http://www.w3.org/1999/xlink" x="0px" y="0px"
	 viewBox="0 0 510.2 453.5" style="enable-background:new 0 0 510.2 453.5;" xml:space="preserve">
<style type="text/css">
	.st0{fill:#F5D752;stroke:#040000;stroke-miterlimit:10;}
	.st1{fill:#8FC31F;stroke:#040000;stroke-miterlimit:10;}
	.st2{fill:none;stroke:#000000;stroke-miterlimit:10;}
	.st3{fill:none;stroke:#040000;stroke-miterlimit:10;}
	.st4{fill:#EAF4E6;stroke:#040000;stroke-miterlimit:10;}
	.st5{fill:#FAEFB3;stroke:#040000;stroke-miterlimit:10;}
	.st6{fill:none;}
	.st7{fill:none;stroke:#000000;stroke-width:0.25;stroke-miterlimit:10;}
	.st8{fill:#FFFFFF;stroke:#040000;stroke-miterlimit:10;}
	.st9{fill:#F09286;stroke:#040000;stroke-miterlimit:10;}
	.st10{fill:#595757;stroke:#000000;stroke-miterlimit:10;}
	.st11{font-family:'KozGoPr6N-Regular-90ms-RKSJ-H';}
	.st12{font-size:7px;}
	.st13{fill:#1D2088;}
	.st14{fill:#E60012;}
	.st15{font-size:4px;}
</style>
<g id="部屋">
	<rect x="283.6" y="408.5" class="st0" width="28.3" height="15.7"/>
	<rect x="198.3" y="408.5" class="st0" width="28.3" height="15.7"/>
	<rect x="71.3" y="104.5" class="st1" width="99.2" height="28.3"/>
	<rect x="99.6" y="104.5" class="st0" width="70.9" height="28.3"/>
	<polygon class="st1" points="71.3,62.1 71.3,53.6 60.3,53.6 57.1,53.6 28.8,53.6 28.8,104.6 60.3,104.6 60.3,90.5 170.5,90.5 
		170.5,62.1 	"/>
	<rect x="71.4" y="62" class="st0" width="99.2" height="28.3"/>
	<polygon class="st0" points="42.9,260.1 28.8,260.1 28.8,317 57.1,317 57.1,260.1 42.9,260.1 	"/>
	<rect x="212.8" y="328.6" class="st0" width="85" height="31.2"/>
	<polygon class="st0" points="475.2,53.6 453.5,53.6 453.5,53.6 446.9,53.6 439.3,53.6 439.3,62.1 354,62.1 354,90.5 439.3,90.5 
		453.5,90.5 453.5,90.5 453.5,104.6 481.8,104.6 481.8,53.6 	"/>
	<rect x="297.6" y="104.6" class="st0" width="28.3" height="255.1"/>
	<rect x="184.9" y="104.6" class="st0" width="28.3" height="255.1"/>
	<polygon class="st0" points="212.3,33.8 212.3,62.2 184.7,62.2 184.7,67.8 184.7,90.5 184.7,90.5 198.3,90.5 198.3,90.5 
		212.3,90.5 212.3,76.3 297.7,76.3 297.7,33.8 	"/>
	<rect x="234.2" y="76.2" class="st0" width="42.8" height="42.8"/>
	<rect x="453.5" y="345.6" class="st0" width="28.3" height="42.5"/>
	<polygon class="st1" points="42.9,133 28.8,133 28.8,260.3 57.1,260.3 57.1,133 42.9,133 	"/>
	<polygon class="st0" points="297.6,69.3 297.6,90.5 311.7,90.5 311.7,90.5 325.9,90.5 325.9,90.5 325.9,76.3 325.9,67.8 
		325.9,62.2 297.6,62.2 297.6,67.8 	"/>
	<rect x="340.1" y="218" class="st0" width="99.2" height="42.5"/>
	<rect x="340.1" y="62.2" class="st0" width="85" height="28.3"/>
	<line class="st2" x1="156.3" y1="90.5" x2="156.3" y2="62.2"/>
	<line class="st2" x1="142.2" y1="90.3" x2="142.2" y2="62"/>
	<line class="st2" x1="99.6" y1="90.5" x2="99.6" y2="62.2"/>
	<line class="st2" x1="113.8" y1="90.5" x2="113.8" y2="62.2"/>
	<line class="st2" x1="128" y1="90.3" x2="128" y2="62"/>
	<rect x="71.3" y="331.8" class="st0" width="99.2" height="28.3"/>
	<rect x="340.2" y="104.6" class="st0" width="99.2" height="28.3"/>
	<rect x="340.2" y="331.8" class="st0" width="99.2" height="28.3"/>
	<polygon class="st0" points="467.7,132.9 453.5,132.9 453.5,317.1 481.8,317.1 481.8,132.9 467.7,132.9 	"/>
	<line class="st2" x1="71.2" y1="90.5" x2="71.2" y2="62.2"/>
	<line class="st2" x1="85.5" y1="90.3" x2="85.5" y2="62"/>
	<line class="st2" x1="425.4" y1="90.2" x2="425.4" y2="61.9"/>
	<line class="st2" x1="382.9" y1="90.4" x2="382.9" y2="62.1"/>
	<line class="st2" x1="397" y1="90.4" x2="397" y2="62.1"/>
	<line class="st2" x1="411.2" y1="90.2" x2="411.2" y2="61.9"/>
	<line class="st2" x1="368.7" y1="90.2" x2="368.7" y2="61.9"/>
	<line class="st2" x1="439.4" y1="90.2" x2="439.4" y2="53.6"/>
	<line class="st3" x1="297.6" y1="118.8" x2="325.9" y2="118.8"/>
	<line class="st3" x1="297.6" y1="133" x2="325.9" y2="133"/>
	<line class="st3" x1="297.6" y1="161.3" x2="325.9" y2="161.3"/>
	<line class="st3" x1="297.6" y1="175.5" x2="325.9" y2="175.5"/>
	<line class="st3" x1="297.6" y1="232.2" x2="325.9" y2="232.2"/>
	<line class="st3" x1="297.6" y1="246.5" x2="325.9" y2="246.5"/>
	<line class="st3" x1="297.6" y1="260.5" x2="325.9" y2="260.5"/>
	<line class="st3" x1="297.6" y1="274.8" x2="325.9" y2="274.8"/>
	<line class="st3" x1="297.6" y1="288.9" x2="325.9" y2="288.9"/>
	<line class="st3" x1="297.6" y1="317.2" x2="325.9" y2="317.2"/>
	<line class="st3" x1="297.6" y1="331.4" x2="325.9" y2="331.4"/>
	<rect x="29.4" y="345.6" class="st1" width="28.3" height="42.5"/>
	<line class="st2" x1="453.5" y1="90.2" x2="453.5" y2="53.6"/>
	<line class="st3" x1="184.9" y1="118.8" x2="213.3" y2="118.8"/>
	<line class="st3" x1="184.9" y1="133" x2="213.3" y2="133"/>
	<line class="st3" x1="184.9" y1="147.2" x2="213.3" y2="147.2"/>
	<line class="st3" x1="184.9" y1="161.3" x2="213.3" y2="161.3"/>
	<line class="st3" x1="184.9" y1="175.5" x2="213.3" y2="175.5"/>
	<line class="st3" x1="184.9" y1="260.5" x2="213.3" y2="260.5"/>
	<line class="st3" x1="184.9" y1="288.9" x2="213.3" y2="288.9"/>
	<line class="st3" x1="28.8" y1="161.4" x2="57.1" y2="161.4"/>
	<line class="st3" x1="28.8" y1="260.8" x2="57.1" y2="260.8"/>
	<line class="st3" x1="28.8" y1="289.1" x2="57.1" y2="289.1"/>
	<line class="st3" x1="28.8" y1="303.2" x2="57.1" y2="303.2"/>
	<line class="st3" x1="28.8" y1="317.3" x2="57.1" y2="317.3"/>
	<line class="st3" x1="28.8" y1="345.7" x2="57.1" y2="345.7"/>
	<line class="st3" x1="453.5" y1="147.2" x2="481.8" y2="147.2"/>
	<line class="st3" x1="453.5" y1="161.3" x2="481.8" y2="161.3"/>
	<line class="st3" x1="453.5" y1="175.5" x2="481.8" y2="175.5"/>
	<line class="st3" x1="453.5" y1="189.7" x2="481.8" y2="189.7"/>
	<line class="st3" x1="453.5" y1="203.8" x2="481.8" y2="203.8"/>
	<line class="st3" x1="453.5" y1="260.5" x2="481.8" y2="260.5"/>
	<line class="st3" x1="453.5" y1="274.8" x2="481.8" y2="274.8"/>
	<line class="st3" x1="453.5" y1="288.9" x2="467.7" y2="288.9"/>
	<line class="st3" x1="453.5" y1="303.1" x2="481.8" y2="303.1"/>
	<line class="st3" x1="453.5" y1="317.3" x2="481.8" y2="317.3"/>
	<line class="st3" x1="453.5" y1="345.6" x2="481.8" y2="345.6"/>
	<line class="st3" x1="453.5" y1="373.9" x2="481.8" y2="373.9"/>
	<line class="st2" x1="142.2" y1="132.9" x2="142.2" y2="104.6"/>
	<line class="st2" x1="99.7" y1="133" x2="99.7" y2="104.8"/>
	<line class="st2" x1="425.3" y1="133.1" x2="425.3" y2="104.8"/>
	<line class="st2" x1="411.1" y1="132.9" x2="411.1" y2="104.7"/>
	<line class="st2" x1="368.6" y1="133.1" x2="368.6" y2="104.8"/>
	<line class="st2" x1="382.8" y1="133.1" x2="382.8" y2="104.8"/>
	<line class="st2" x1="396.9" y1="132.9" x2="396.9" y2="104.7"/>
	<line class="st2" x1="142.2" y1="360.1" x2="142.2" y2="331.8"/>
	<line class="st2" x1="99.6" y1="360.2" x2="99.6" y2="332"/>
	<line class="st2" x1="113.8" y1="360.2" x2="113.8" y2="332"/>
	<line class="st2" x1="425.2" y1="360.2" x2="425.2" y2="332"/>
	<line class="st2" x1="411.1" y1="360.1" x2="411.1" y2="331.8"/>
	<line class="st2" x1="368.6" y1="360.2" x2="368.6" y2="332"/>
	<line class="st2" x1="382.7" y1="360.2" x2="382.7" y2="332"/>
	<line class="st2" x1="396.9" y1="360.1" x2="396.9" y2="331.8"/>
	<line class="st2" x1="354.4" y1="360.1" x2="354.4" y2="331.8"/>
	<line class="st3" x1="453.5" y1="232.2" x2="481.9" y2="232.2"/>
	<line class="st3" x1="453.5" y1="218" x2="481.8" y2="218"/>
	<line class="st3" x1="453.5" y1="246.5" x2="481.9" y2="246.5"/>
	<line class="st3" x1="28.8" y1="218" x2="57.1" y2="218"/>
	<rect x="71.3" y="218" class="st1" width="99.2" height="42.5"/>
	<line class="st2" x1="113.8" y1="260.5" x2="113.8" y2="218"/>
	<line class="st3" x1="467.7" y1="303.1" x2="467.7" y2="289"/>
	<line class="st2" x1="425.3" y1="260.5" x2="425.3" y2="218.2"/>
	<line class="st2" x1="411.1" y1="260.3" x2="411.1" y2="218"/>
	<line class="st2" x1="368.6" y1="260.5" x2="368.6" y2="246.5"/>
	<line class="st2" x1="354.5" y1="246.5" x2="396.9" y2="246.5"/>
	<line class="st2" x1="396.9" y1="260.3" x2="396.9" y2="218"/>
	<line class="st2" x1="354.4" y1="260.3" x2="354.4" y2="218"/>
	<line class="st2" x1="340.2" y1="239.4" x2="354" y2="239.4"/>
	<line class="st2" x1="340.3" y1="228.8" x2="354.1" y2="228.8"/>
	<line class="st2" x1="340.2" y1="250.5" x2="354" y2="250.5"/>
	<line class="st2" x1="212.3" y1="90.5" x2="212.3" y2="33.8"/>
	<line class="st2" x1="255.1" y1="346.1" x2="255.1" y2="328.7"/>
	<line class="st2" x1="269.3" y1="346.1" x2="269.3" y2="328.7"/>
	<line class="st2" x1="240.9" y1="346" x2="240.9" y2="328.6"/>
	<line class="st2" x1="283.4" y1="346" x2="283.4" y2="328.5"/>
	<line class="st2" x1="227.1" y1="345.2" x2="227.1" y2="328.5"/>
	<line class="st2" x1="276.9" y1="62" x2="276.9" y2="33.8"/>
	<line class="st2" x1="256.4" y1="93.5" x2="256.2" y2="76.3"/>
	<line class="st2" x1="244.6" y1="118.4" x2="244.6" y2="76.3"/>
	<line class="st2" x1="266.5" y1="118.6" x2="266.5" y2="94"/>
	<line class="st2" x1="255.8" y1="93.5" x2="277.2" y2="93.5"/>
	<line class="st2" x1="255.8" y1="102.4" x2="266.5" y2="102.4"/>
	<line class="st2" x1="256.4" y1="119.5" x2="256.2" y2="102.4"/>
	<rect x="113.8" y="218" class="st0" width="56.4" height="42.5"/>
</g>
<g id="通路">
	<polygon class="st4" points="312,408.5 312,373.9 198.6,373.9 198.6,408.5 226.9,408.5 226.9,424.2 283.7,424.2 283.7,408.5 	"/>
	<path class="st5" d="M453.7,133h28.3h5.7v-28.3h-5.7h-28.3h0V90.5h-62.5h-28.3h-22.5V67.8h0v-5.7h-14.2v0.1v5.6v8.5v14.2v0H312v0
		h-14.2V69.3v-1.5v-5.6h-71v7.1h0v7h-14.1v14.2h-0.3h-13.9v0h-13.7v0V67.8h0v-5.6h-14.2v5.6v8.6v14.1h-85v0H71.4H60.3h-3h0v14.2
		H28.9h-5.7V133h5.7h28.2v170.1H57v14.2H28.7H23v14.2v0v14.2h5.7H57v14.2v14.2h0h14.2v0h0.1h14.2h4.2h74.7h20.4v0h13.7v0v34h28.3
		v-34h56.7v34h28.3v-34v0h14.2v0h36.9h28.3h62.3v-14.2v-14.2h0h28.3h5.7v-14.2v0v-14.2h-5.7h-28.1v-85h-0.1L453.7,133L453.7,133z
		 M170.8,129.2h-0.3v193.5h0v37.1h-6.2h-7H89.7H71.3h-0.1l0-37.1h0.1v-90.5h0.1l0-127.6h99.1v0h0.3V129.2z M326.2,133h-0.3v56.7
		h-28.1h-5.7V218h5.7h28.1v111.9h0v29.8h-14.2v0h-14.2h-14.2v0v-14.2h-56.7v14.2h-28.3v0h-13.7v0v-56.7h0v-70.9h0.2V218h27.6h5.4
		v-28.3h-5.4h-27.6v0v-85h13.7v0h13.9h0.3H234V76.3h42.5v28.3h21.3H312v0h14.2V133z M439.5,232.2L439.5,232.2l0,70.9h-0.2v56.7
		h-48.1h-28.3h-22.8v-56.7h0v-70.9h0.3V104.6h22.5h28.3h48.3V232.2z"/>
	<polygon class="st6" points="312,104.6 297.8,104.6 276.6,104.6 276.6,76.3 234,76.3 234,104.6 212.8,104.6 212.5,104.6 
		198.6,104.6 198.6,104.6 184.9,104.6 184.9,189.7 184.9,189.7 212.5,189.7 217.9,189.7 217.9,218 212.5,218 184.9,218 184.9,232.2 
		184.7,232.2 184.7,303.1 184.7,303.1 184.7,359.8 184.7,359.8 198.4,359.8 198.4,359.8 226.7,359.8 226.7,345.6 283.4,345.6 
		283.4,359.8 283.4,359.8 297.6,359.8 311.8,359.8 311.8,359.8 325.9,359.8 325.9,329.9 325.9,329.9 325.9,218 297.8,218 292.1,218 
		292.1,189.7 297.8,189.7 325.9,189.7 325.9,133 326.2,133 326.2,104.6 312,104.6 	"/>
	<line class="st3" x1="28.8" y1="331.5" x2="57.1" y2="331.5"/>
	<line class="st3" x1="453.5" y1="331.4" x2="487.5" y2="331.4"/>
	<line class="st3" x1="453.5" y1="118.7" x2="487.7" y2="118.7"/>
	<line class="st3" x1="28.8" y1="119" x2="57.1" y2="119"/>
	<line class="st3" x1="184.9" y1="204" x2="217.7" y2="204"/>
	<line class="st3" x1="292.4" y1="204" x2="325.9" y2="204"/>
	<line class="st3" x1="43.5" y1="132.9" x2="43.5" y2="118.7"/>
	<line class="st3" x1="39" y1="133" x2="39" y2="118.9"/>
	<line class="st3" x1="48.1" y1="133" x2="48.1" y2="118.9"/>
	<line class="st3" x1="34.3" y1="133" x2="34.3" y2="118.9"/>
	<line class="st3" x1="41.3" y1="331.3" x2="41.3" y2="317.2"/>
	<line class="st3" x1="36.7" y1="331.5" x2="36.7" y2="317.3"/>
	<line class="st3" x1="45.8" y1="331.5" x2="45.8" y2="317.3"/>
	<line class="st3" x1="32.1" y1="331.5" x2="32.1" y2="317.3"/>
	<line class="st3" x1="200.9" y1="217.7" x2="200.9" y2="189.6"/>
	<line class="st3" x1="196.4" y1="218" x2="196.4" y2="189.9"/>
	<line class="st3" x1="205.5" y1="218" x2="205.5" y2="189.9"/>
	<line class="st3" x1="191.7" y1="218" x2="191.7" y2="189.9"/>
	<line class="st3" x1="198.9" y1="390.4" x2="227" y2="390.4"/>
	<line class="st3" x1="198.6" y1="385.9" x2="226.7" y2="385.9"/>
	<line class="st3" x1="198.6" y1="395" x2="226.7" y2="395"/>
	<line class="st3" x1="198.6" y1="381.2" x2="226.7" y2="381.2"/>
	<line class="st3" x1="470" y1="132.9" x2="470" y2="104.8"/>
	<line class="st3" x1="465.4" y1="133.2" x2="465.4" y2="105.1"/>
	<line class="st3" x1="474.6" y1="133.2" x2="474.6" y2="105.1"/>
	<line class="st3" x1="460.8" y1="133.2" x2="460.8" y2="105.1"/>
	<line class="st3" x1="467.8" y1="345.2" x2="467.8" y2="317.1"/>
	<line class="st3" x1="463.2" y1="345.5" x2="463.2" y2="317.4"/>
	<line class="st3" x1="472.3" y1="345.5" x2="472.3" y2="317.4"/>
	<line class="st3" x1="458.6" y1="345.5" x2="458.6" y2="317.4"/>
	<line class="st3" x1="212.3" y1="407.9" x2="212.3" y2="373.9"/>
	<line class="st3" x1="297.7" y1="407.9" x2="297.7" y2="373.9"/>
	<line class="st3" x1="284.2" y1="390.4" x2="312.2" y2="390.4"/>
	<line class="st3" x1="283.9" y1="385.9" x2="312" y2="385.9"/>
	<line class="st3" x1="283.9" y1="395" x2="312" y2="395"/>
	<line class="st3" x1="283.9" y1="381.2" x2="312" y2="381.2"/>
	<line class="st3" x1="314.1" y1="217.5" x2="314.1" y2="189.5"/>
	<line class="st3" x1="309.5" y1="217.8" x2="309.5" y2="189.8"/>
	<line class="st3" x1="318.6" y1="217.8" x2="318.6" y2="189.8"/>
	<line class="st3" x1="304.9" y1="217.8" x2="304.9" y2="189.8"/>
	<line class="st2" x1="282.5" y1="70.8" x2="297.6" y2="70.8"/>
	<line class="st2" x1="282.5" y1="66.7" x2="297.6" y2="66.7"/>
	<line class="st2" x1="294.2" y1="66.9" x2="294.2" y2="62.7"/>
	<line class="st2" x1="291.8" y1="66.9" x2="291.8" y2="62.7"/>
	<line class="st2" x1="289.5" y1="66.8" x2="289.5" y2="62.6"/>
	<line class="st2" x1="286.8" y1="66.5" x2="286.8" y2="62.3"/>
	<line class="st2" x1="284.1" y1="66.9" x2="284.1" y2="62.7"/>
	<g>
		<rect x="226.7" y="97.5" class="st2" width="7.1" height="7.1"/>
		<rect x="228.8" y="99.6" class="st7" width="2.8" height="2.8"/>
		<line class="st7" x1="229.3" y1="97.5" x2="229.3" y2="99.6"/>
		<line class="st7" x1="230.2" y1="102.4" x2="230.2" y2="104.5"/>
		<line class="st7" x1="226.7" y1="100.2" x2="228.8" y2="100.2"/>
		<line class="st7" x1="231" y1="102.4" x2="231" y2="104.5"/>
		<line class="st7" x1="229.3" y1="102.4" x2="229.3" y2="104.5"/>
		<line class="st7" x1="230.2" y1="97.5" x2="230.2" y2="99.6"/>
		<line class="st7" x1="231" y1="97.5" x2="231" y2="99.6"/>
		<line class="st7" x1="226.7" y1="101.8" x2="228.8" y2="101.8"/>
		<line class="st7" x1="231.5" y1="100.2" x2="233.7" y2="100.2"/>
		<line class="st7" x1="231.5" y1="101.8" x2="233.7" y2="101.8"/>
		<line class="st7" x1="226.5" y1="101" x2="228.7" y2="101"/>
		<line class="st7" x1="231.5" y1="101" x2="233.7" y2="101"/>
	</g>
	<g>
		<rect x="277.6" y="97.5" class="st2" width="7.1" height="7.1"/>
		<rect x="279.7" y="99.6" class="st7" width="2.8" height="2.8"/>
		<line class="st7" x1="280.2" y1="97.5" x2="280.2" y2="99.6"/>
		<line class="st7" x1="281.1" y1="102.4" x2="281.1" y2="104.5"/>
		<line class="st7" x1="277.6" y1="100.2" x2="279.7" y2="100.2"/>
		<line class="st7" x1="281.9" y1="102.4" x2="281.9" y2="104.5"/>
		<line class="st7" x1="280.2" y1="102.4" x2="280.2" y2="104.5"/>
		<line class="st7" x1="281.1" y1="97.5" x2="281.1" y2="99.6"/>
		<line class="st7" x1="281.9" y1="97.5" x2="281.9" y2="99.6"/>
		<line class="st7" x1="277.6" y1="101.8" x2="279.7" y2="101.8"/>
		<line class="st7" x1="282.4" y1="100.2" x2="284.6" y2="100.2"/>
		<line class="st7" x1="282.4" y1="101.8" x2="284.6" y2="101.8"/>
		<line class="st7" x1="277.4" y1="101" x2="279.6" y2="101"/>
		<line class="st7" x1="282.4" y1="101" x2="284.6" y2="101"/>
	</g>
	<line class="st3" x1="226.7" y1="407.9" x2="241" y2="407.9"/>
	<line class="st3" x1="283.4" y1="407.9" x2="269.3" y2="407.9"/>
	<line class="st3" x1="269.1" y1="408.2" x2="269.1" y2="394"/>
	<line class="st3" x1="240.7" y1="407.9" x2="240.7" y2="393.8"/>
	<line class="st3" x1="240.7" y1="393.8" x2="269.3" y2="393.8"/>
	<g>
		
			<rect x="170.5" y="47.9" transform="matrix(-1.280814e-13 1 -1 -1.280814e-13 232.6293 -122.5606)" class="st8" width="14.2" height="14.2"/>
		<path class="st9" d="M184.7,47.9c-7.8,0-14.2,6.3-14.2,14.2h14.2V47.9z"/>
	</g>
	<g>
		
			<rect x="326.4" y="47.9" transform="matrix(-0.9999 -1.339349e-02 1.339349e-02 -0.9999 666.2339 114.5305)" class="st8" width="14.2" height="14.2"/>
		<path class="st9" d="M340.5,62.2c0.1-7.8-6.2-14.3-14-14.4L326.3,62L340.5,62.2z"/>
	</g>
	<g>
		<g>
			
				<rect x="8.8" y="118.7" transform="matrix(-6.413254e-14 1 -1 -6.413254e-14 141.7322 109.8708)" class="st8" width="14.2" height="14.2"/>
			<path class="st9" d="M23,118.7c-7.8,0-14.2,6.3-14.2,14.2H23V118.7z"/>
		</g>
		<g>
			<rect x="8.8" y="104.8" class="st8" width="14.2" height="14.2"/>
			<path class="st9" d="M8.8,104.8c0,7.8,6.3,14.2,14.2,14.2l0-14.2L8.8,104.8z"/>
		</g>
	</g>
	<g>
		<g>
			
				<rect x="8.8" y="331.2" transform="matrix(-6.413254e-14 1 -1 -6.413254e-14 354.2264 322.365)" class="st8" width="14.2" height="14.2"/>
			<path class="st9" d="M23,331.2c-7.8,0-14.2,6.3-14.2,14.2H23V331.2z"/>
		</g>
		<g>
			<rect x="8.8" y="317.3" class="st8" width="14.2" height="14.2"/>
			<path class="st9" d="M8.8,317.3c0,7.8,6.3,14.2,14.2,14.2l0-14.2H8.8z"/>
		</g>
	</g>
	<g>
		<rect x="269.1" y="374.1" class="st8" width="14.2" height="14.2"/>
		<path class="st9" d="M269.1,374.1c0,7.8,6.3,14.2,14.2,14.2v-14.2H269.1z"/>
	</g>
	<g>
		
			<rect x="227.1" y="374.1" transform="matrix(2.082343e-07 -1 1 2.082343e-07 -147.0681 615.3928)" class="st8" width="14.2" height="14.2"/>
		<path class="st9" d="M227.1,388.3c7.8,0,14.2-6.3,14.2-14.2h-14.2V388.3z"/>
	</g>
</g>
<g id="バーテクス">
	<circle class="st10" cx="289.4" cy="92.6" r="2.8"/>
	<circle class="st10" cx="446.9" cy="118.8" r="2.8"/>
	<circle class="st10" cx="446.9" cy="331.4" r="2.8"/>
	<circle class="st10" cx="298.1" cy="366.9" r="2.8"/>
	<circle class="st10" cx="213.3" cy="366.9" r="2.8"/>
	<circle class="st10" cx="333.5" cy="366.9" r="2.8"/>
	<circle class="st10" cx="177.6" cy="366.9" r="2.8"/>
	<circle class="st10" cx="333.5" cy="203.9" r="2.8"/>
	<circle class="st10" cx="177.6" cy="203.9" r="2.8"/>
	<circle class="st10" cx="64.2" cy="338.3" r="2.8"/>
	<circle class="st10" cx="64.2" cy="111.9" r="2.8"/>
	<circle class="st10" cx="333.5" cy="97.6" r="2.8"/>
	<circle class="st10" cx="177.6" cy="97.6" r="2.8"/>
	<circle class="st10" cx="255.5" cy="366.9" r="2.8"/>
	<circle class="st10" cx="223.2" cy="92.6" r="2.8"/>
	<circle class="st10" cx="278.1" cy="66.9" r="2.8"/>
	<circle class="st10" cx="177.6" cy="67.8" r="2.8"/>
	<circle class="st10" cx="332.9" cy="67.8" r="2.8"/>
	<circle class="st10" cx="64.2" cy="366.9" r="2.8"/>
	<circle class="st10" cx="446.9" cy="366.9" r="2.8"/>
	<circle class="st10" cx="64.2" cy="97.4" r="2.8"/>
	<circle class="st10" cx="446.9" cy="97.4" r="2.8"/>
	<circle class="st10" cx="28.8" cy="338.3" r="2.8"/>
	<circle class="st10" cx="28.8" cy="111.9" r="2.8"/>
	<circle class="st10" cx="250.9" cy="72.5" r="2.8"/>
</g>
<g id="テキスト">
	<text transform="matrix(1 0 0 1 83.9211 237.2721)"><tspan x="0" y="0" class="st11 st12">H111</tspan><tspan x="-2.3" y="12.3" class="st11 st12">講義室</tspan></text>
	<text transform="matrix(1 0 0 1 34.7095 364.0038)"><tspan x="0" y="0" class="st11 st12">H112</tspan><tspan x="-2.3" y="12.3" class="st11 st12">講義室</tspan></text>
	<text transform="matrix(1 0 0 1 33.4649 236.4836)"><tspan x="0" y="0" class="st11 st12">H113</tspan><tspan x="-2.3" y="12.3" class="st11 st12">講義室</tspan></text>
	<text transform="matrix(1 0 0 1 33.5327 188.2438)"><tspan x="0" y="0" class="st11 st12">H114</tspan><tspan x="-2.3" y="12.3" class="st11 st12">講義室</tspan></text>
	<text transform="matrix(1 0 0 1 35.7203 143.9836)"><tspan x="0" y="0" class="st11 st12">H115</tspan><tspan x="-2.3" y="12.3" class="st11 st12">講義室</tspan></text>
	<text transform="matrix(1 0 0 1 35.2883 72.4844)"><tspan x="0" y="0" class="st11 st12">H116</tspan><tspan x="-2.3" y="12.3" class="st11 st12">講義室</tspan></text>
	<text transform="matrix(1 0 0 1 77.4704 116.7791)"><tspan x="0" y="0" class="st11 st12">H118</tspan><tspan x="-2.3" y="12.3" class="st11 st12">講義室</tspan></text>
	<g>
		<circle class="st13" cx="217.5" cy="333.2" r="1.8"/>
		<circle class="st14" cx="222.9" cy="333.2" r="1.8"/>
		<polygon class="st14" points="222.9,335.5 220.7,344.3 225,344.3 		"/>
		<polygon class="st13" points="217.5,344.3 219.7,335.5 215.4,335.5 		"/>
	</g>
	<circle class="st13" cx="43.5" cy="305.5" r="1.8"/>
	<circle class="st14" cx="43.5" cy="291.5" r="1.8"/>
	<polygon class="st14" points="43.5,293.8 41.3,302.6 45.6,302.6 	"/>
	<polygon class="st13" points="43.5,316.7 45.6,307.9 41.3,307.9 	"/>
	<g>
		<circle class="st14" cx="461" cy="291.4" r="1.8"/>
		<polygon class="st14" points="461,293.7 458.9,302.5 463.2,302.5 		"/>
	</g>
	<g>
		<circle class="st13" cx="466.6" cy="305.5" r="1.8"/>
		<polygon class="st13" points="466.6,316.6 468.8,307.8 464.5,307.8 		"/>
	</g>
	<text transform="matrix(1 0 0 1 73.4008 79.7843)" class="st11 st12">112</text>
	<text transform="matrix(1 0 0 1 192.9242 184.4698)" class="st11 st12">134B</text>
	<text transform="matrix(1 0 0 1 192.6496 142.736)" class="st11 st12">132B</text>
	<text transform="matrix(1 0 0 1 194.2511 156.3358)" class="st11 st12">133</text>
	<text transform="matrix(1 0 0 1 191.9026 128.7359)" class="st11 st12">132A</text>
	<text transform="matrix(1 0 0 1 194.356 116.7359)" class="st11 st12">131</text>
	<text transform="matrix(1 0 0 1 193.3751 79.1553)" class="st11 st12">130</text>
	<text transform="matrix(1 0 0 1 136.7601 242.0889)" class="st11 st12">124</text>
	<text transform="matrix(1 0 0 1 36.4641 277.7905)" class="st11 st12">109</text>
	<text transform="matrix(1 0 0 1 114.7745 122.6805)" class="st11 st12">121</text>
	<text transform="matrix(1 0 0 1 157.8617 79.1389)" class="st11 st12">118</text>
	<text transform="matrix(1 0 0 1 144.0277 79.8976)" class="st11 st12">117</text>
	<text transform="matrix(1 0 0 1 129.0277 79.5556)" class="st11 st12">116</text>
	<text transform="matrix(1 0 0 1 115.55 79.6206)" class="st11 st12">115</text>
	<text transform="matrix(1 0 0 1 101.3617 79.6389)" class="st11 st12">114</text>
	<text transform="matrix(1 0 0 1 87.7383 79.8867)" class="st11 st12">113</text>
	<text transform="matrix(1 0 0 1 304.6463 305.9372)" class="st11 st12">161B</text>
	<text transform="matrix(1 0 0 1 306.951 285.1365)" class="st11 st12">160</text>
	<text transform="matrix(1 0 0 1 306.528 270.9554)" class="st11 st12">159</text>
	<text transform="matrix(1 0 0 1 306.5901 257.1365)" class="st11 st12">158</text>
	<text transform="matrix(1 0 0 1 304.1194 242.6365)" class="st11 st12">157B</text>
	<text transform="matrix(1 0 0 1 304.0847 228.9698)" class="st11 st12">157A</text>
	<text transform="matrix(1 0 0 1 193.274 327.544)" class="st11 st12">137</text>
	<text transform="matrix(1 0 0 1 192.537 277.6365)" class="st11 st12">136</text>
	<text transform="matrix(1 0 0 1 192.8167 240.687)" class="st11 st12">135</text>
	<text transform="matrix(1 0 0 1 78.9702 349.8387)" class="st11 st12">125</text>
	<text transform="matrix(1 0 0 1 101.1235 349.6178)" class="st11 st12">127</text>
	<text transform="matrix(1 0 0 1 123.2662 350.4302)" class="st11 st12">128</text>
	<text transform="matrix(1 0 0 1 151.2489 350.041)" class="st11 st12">129</text>
	<text transform="matrix(1 0 0 1 284.9925 346.8422)" class="st11 st12">148</text>
	<text transform="matrix(1 0 0 1 307.8843 347.443)" class="st11 st12">162</text>
	<text transform="matrix(1 0 0 1 281.0217 50.7705)" class="st11 st12">142</text>
	<text transform="matrix(1 0 0 1 307.1884 78.4001)" class="st11 st12">153</text>
	<text transform="matrix(1 0 0 1 306.8291 185.9372)" class="st11 st12">156</text>
	<text transform="matrix(1 0 0 1 306.8591 170.9372)" class="st11 st12">156</text>
	<text transform="matrix(1 0 0 1 304.5685 149.2577)" class="st11 st12">155B</text>
	<text transform="matrix(1 0 0 1 304.5292 128.7706)" class="st11 st12">155A</text>
	<text transform="matrix(1 0 0 1 306.5857 115.1039)" class="st11 st12">154</text>
	<text transform="matrix(1 0 0 1 348.4011 79.2303)" class="st11 st12">164</text>
	<text transform="matrix(1 0 0 1 412.7777 80.5198)" class="st11 st12">168</text>
	<text transform="matrix(1 0 0 1 397.7777 80.1779)" class="st11 st12">167</text>
	<text transform="matrix(1 0 0 1 384.3 80.2429)" class="st11 st12">166</text>
	<text transform="matrix(1 0 0 1 370.1117 80.2612)" class="st11 st12">165</text>
	<text transform="matrix(1 0 0 1 425.9172 80.2698)" class="st11 st12">169</text>
	<text transform="matrix(1 0 0 1 460.9185 80.5198)" class="st11 st12">194A</text>
	<text transform="matrix(1 0 0 1 349.6511 122.7701)" class="st11 st12">170</text>
	<text transform="matrix(1 0 0 1 370.1511 122.5933)" class="st11 st12">171</text>
	<text transform="matrix(1 0 0 1 384.2038 122.5322)" class="st11 st12">172</text>
	<text transform="matrix(1 0 0 1 427.5173 122.0962)" class="st11 st12">177</text>
	<text transform="matrix(1 0 0 1 398.7753 242.1024)" class="st11 st12">179</text>
	<text transform="matrix(0 -1 1 0 393.6865 354.2959)" class="st11 st12">188B</text>
	<text transform="matrix(0 -1 1 0 378.5936 354.7803)" class="st11 st12">188A</text>
	<text transform="matrix(1 0 0 1 462.659 186.8358)" class="st11 st12">198</text>
	<text transform="matrix(1 0 0 1 463.206 173.2359)" class="st11 st12">197</text>
	<text transform="matrix(1 0 0 1 463.206 158.2359)" class="st11 st12">196</text>
	<text transform="matrix(1 0 0 1 462.6356 143.2742)" class="st11 st12">195</text>
	<text transform="matrix(1 0 0 1 458.4589 255.694)" class="st11 st12">R100C</text>
	<text transform="matrix(1 0 0 1 458.4848 241.4827)" class="st11 st12">R100B</text>
	<text transform="matrix(1 0 0 1 457.5394 228.0691)" class="st11 st12">R100A</text>
	<text transform="matrix(1 0 0 1 459.9909 198.6307)" class="st11 st12">199A</text>
	<text transform="matrix(1 0 0 1 461.0974 284.986)" class="st11 st12">R102</text>
	<text transform="matrix(1 0 0 1 460.9308 269.986)" class="st11 st12">R101</text>
	<text transform="matrix(1 0 0 1 459.8378 213.6909)" class="st11 st12">199B</text>
	<text transform="matrix(1 0 0 1 459.9862 382.7097)" class="st11 st12">R104</text>
	<text transform="matrix(1 0 0 1 207.2472 418.7705)" class="st11 st12">150</text>
	<text transform="matrix(1 0 0 1 291.377 418.1039)" class="st11 st12">152</text>
	<text transform="matrix(1 0 0 1 192.2838 170.6365)" class="st11 st12">134A</text>
	<text transform="matrix(1 0 0 1 150.7745 122.5139)" class="st11 st12">122</text>
	<text transform="matrix(1 0 0 1 241.1884 49.7705)" class="st11 st12">141</text>
	<text transform="matrix(1 0 0 1 258.4915 87.7706)" class="st11 st12">143B</text>
	<text transform="matrix(0 -1 1 0 241.835 104.5518)" class="st11 st12">143A</text>
	<text transform="matrix(0 -1 1 0 264.2205 119.3535)" class="st11 st12">143D</text>
	<text transform="matrix(0 -1 1 0 275.0539 113.666)" class="st11 st12">143E</text>
	<text transform="matrix(1 0 0 1 304.2141 325.9372)" class="st11 st12">161A</text>
	<text transform="matrix(1 0 0 1 228.8551 341.5891)" class="st11 st12">146</text>
	<text transform="matrix(0 -1 1 0 250.8517 344.9248)" class="st11 st12">147A</text>
	<text transform="matrix(0 -1 1 0 278.3517 345.2471)" class="st11 st12">147B</text>
	<text transform="matrix(0 -1 1 0 450.1471 83.1924)" class="st11 st12">194B</text>
	<text transform="matrix(1 0 0 1 398.2038 122.1989)" class="st11 st12">173</text>
	<text transform="matrix(1 0 0 1 412.1177 122.8148)" class="st11 st12">176</text>
	<text transform="matrix(1 0 0 1 459.9288 364.4314)" class="st11 st12">R103</text>
	<text transform="matrix(1 0 0 1 342.5235 349.4481)" class="st11 st12">186</text>
	<text transform="matrix(1 0 0 1 356.4163 349.6806)" class="st11 st12">187</text>
	<text transform="matrix(1 0 0 1 398.6072 349.6148)" class="st11 st12">189</text>
	<text transform="matrix(1 0 0 1 412.5498 349.6148)" class="st11 st12">190</text>
	<text transform="matrix(1 0 0 1 427.0839 349.0857)" class="st11 st12">191</text>
	<text transform="matrix(1 0 0 1 411.9199 242.165)" class="st11 st12">180</text>
	<text transform="matrix(1 0 0 1 426.4199 242.2275)" class="st11 st12">181</text>
	<text transform="matrix(1 0 0 1 369.3896 234.3525)" class="st11 st12">178B</text>
	<text transform="matrix(1 0 0 1 376.9824 256.3525)" class="st11 st12">185</text>
	<text transform="matrix(1 0 0 1 356.1699 256.04)" class="st11 st12">184</text>
	<text transform="matrix(1 0 0 1 340.6272 225.665)" class="st11 st15">178A-1</text>
	<text transform="matrix(1 0 0 1 340.8772 236.1417)" class="st11 st15">178A-2</text>
	<text transform="matrix(1 0 0 1 341.0449 247.7275)" class="st11 st12">182</text>
	<text transform="matrix(1 0 0 1 341.1699 258.2332)" class="st11 st12">183</text>
</g>
</svg>
