<?xml version="1.0" encoding="utf-8"?>
<!-- Generator: Adobe Illustrator 22.1.0, SVG Export Plug-In . SVG Version: 6.00 Build 0)  -->
<svg version="1.1" id="レイヤー_1" xmlns="http://www.w3.org/2000/svg" xmlns:xlink="http://www.w3.org/1999/xlink" x="0px"
	 y="0px" viewBox="0 0 34 34" style="enable-background:new 0 0 34 34;" xml:space="preserve">
<style type="text/css">
	.st0{fill:#E60012;stroke:#000000;stroke-width:0.25;stroke-miterlimit:10;}
	.st1{fill:#FFFFFF;}
	.st2{font-family:'AgencyFB-Bold';}
	.st3{font-size:10px;}
</style>
<rect y="26.2" class="st0" width="2.8" height="5.7"/>
<rect y="3.5" width="14.2" height="9.9"/>
<text transform="matrix(1 0 0 1 3.152 11.6874)" class="st1 st2 st3">up</text>
<rect x="14.5" y="3.5" width="1.4" height="9.9"/>
<polygon class="st0" points="30.4,9.2 33.1,9.2 27.4,3.5 21.8,9.2 24.7,9.2 24.7,14.8 19.1,14.8 19.1,20.5 13.4,20.5 13.4,26.2 
	13.4,26.2 7.8,26.2 7.8,26.2 5,26.2 5,31.9 7.7,31.9 7.8,31.9 19,31.9 19,31.8 19.1,31.8 19.1,26.2 24.7,26.2 24.7,20.5 30.4,20.5 
	30.4,20.5 30.4,20.5 30.4,14.8 30.4,14.8 "/>
</svg>
